<svg xmlns="http://www.w3.org/2000/svg" width="24" height="24" viewBox="0 0 24 24" fill="none">
    <path d="M12 3.00045L12.295 2.31045C12.2018 2.27057 12.1014 2.25 12 2.25C11.8986 2.25 11.7982 2.27057 11.705 2.31045L12 3.00045ZM12 21.0005L11.628 21.6515C11.7413 21.7162 11.8695 21.7502 12 21.7502C12.1305 21.7502 12.2587 21.7162 12.372 21.6515L12 21.0005ZM11.704 2.31145L5.312 5.05045L5.9 6.43045L12.294 3.69045L11.704 2.31145ZM4.25 6.65945V13.5195H5.75V6.65945H4.25ZM7.651 19.3795L11.628 21.6515L12.372 20.3495L8.395 18.0765L7.651 19.3795ZM12.372 21.6515L16.349 19.3795L15.605 18.0765L11.628 20.3495L12.372 21.6515ZM19.75 13.5185V6.66045H18.25V13.5205L19.75 13.5185ZM18.69 5.05145L12.295 2.31145L11.705 3.68945L18.099 6.43045L18.69 5.05145ZM19.75 6.66045C19.75 5.96045 19.333 5.32745 18.69 5.05145L18.099 6.43045C18.1439 6.44982 18.1821 6.48193 18.209 6.52281C18.2358 6.56369 18.2501 6.61155 18.25 6.66045H19.75ZM16.349 19.3795C17.3821 18.7891 18.2407 17.9362 18.838 16.9071C19.4353 15.878 19.7499 14.7093 19.75 13.5195H18.25C18.2498 14.4447 18.0051 15.3535 17.5406 16.1538C17.0761 16.9541 16.4083 17.6173 15.605 18.0765L16.349 19.3795ZM4.25 13.5195C4.25011 14.7093 4.56473 15.878 5.16199 16.9071C5.75925 17.9362 6.61792 18.7891 7.651 19.3795L8.395 18.0765C7.59151 17.6172 6.92367 16.9538 6.45917 16.1534C5.99468 15.3529 5.75002 14.4439 5.75 13.5185L4.25 13.5195ZM5.31 5.05045C4.99541 5.18543 4.72731 5.40971 4.5389 5.69552C4.35049 5.98133 4.25004 6.31713 4.25 6.65945H5.75C5.75 6.55945 5.81 6.46845 5.902 6.42845L5.31 5.05045Z" fill="#34C759"/>
    <path d="M15 10L11 14L9 12" stroke="#34C759" stroke-width="1.5" stroke-linecap="round" stroke-linejoin="round"/>
</svg>