<svg xmlns="http://www.w3.org/2000/svg" width="24" height="24" viewBox="0 0 24 24" fill="none">
    <path d="M11.0049 2L18.3029 4.28C18.5064 4.34354 18.6843 4.47048 18.8106 4.64229C18.9369 4.81409 19.005 5.02177 19.0049 5.235V7H21.0049C21.2701 7 21.5245 7.10536 21.712 7.29289C21.8995 7.48043 22.0049 7.73478 22.0049 8V10H9.00488V8C9.00488 7.73478 9.11024 7.48043 9.29778 7.29289C9.48531 7.10536 9.73967 7 10.0049 7H17.0049V5.97L11.0049 4.094L5.00488 5.97V13.374C5.00474 13.9862 5.14513 14.5903 5.41525 15.1397C5.68536 15.6892 6.07799 16.1692 6.56288 16.543L6.75188 16.679L11.0049 19.579L14.7869 17H10.0049C9.73967 17 9.48531 16.8946 9.29778 16.7071C9.11024 16.5196 9.00488 16.2652 9.00488 16V12H22.0049V16C22.0049 16.2652 21.8995 16.5196 21.712 16.7071C21.5245 16.8946 21.2701 17 21.0049 17L17.7849 17.001C17.3979 17.511 16.9279 17.961 16.3849 18.331L11.0049 22L5.62488 18.332C4.81741 17.7815 4.15663 17.042 3.70002 16.1779C3.24341 15.3138 3.00478 14.3513 3.00488 13.374V5.235C3.005 5.02194 3.07317 4.81449 3.19945 4.64289C3.32572 4.47128 3.5035 4.34449 3.70688 4.281L11.0049 2Z" fill="#34C759"/>
</svg>