<svg xmlns="http://www.w3.org/2000/svg" width="33" height="36" viewBox="0 0 33 36" fill="none">
<path d="M21.4042 12.2645L22.1524 14.5672C22.3847 15.2678 22.7776 15.9043 23.2999 16.4258C23.8222 16.9474 24.4593 17.3395 25.1603 17.5707L27.4629 18.3189L27.5081 18.3318C27.6857 18.3943 27.8395 18.5104 27.9483 18.6641C28.0571 18.8177 28.1155 19.0014 28.1155 19.1897C28.1155 19.3779 28.0571 19.5616 27.9483 19.7152C27.8395 19.8689 27.6857 19.985 27.5081 20.0475L25.2054 20.7957C24.5045 21.0269 23.8674 21.419 23.3451 21.9406C22.8228 22.4621 22.4298 23.0986 22.1976 23.7993L21.4494 26.0998C21.3868 26.2774 21.2707 26.4312 21.1171 26.54C20.9634 26.6488 20.7798 26.7072 20.5915 26.7072C20.4032 26.7072 20.2196 26.6488 20.0659 26.54C19.9123 26.4312 19.7962 26.2774 19.7337 26.0998L18.9833 23.7993C18.7162 22.9855 18.2332 22.2594 17.5858 21.6987C17.1153 21.2905 16.5688 20.9792 15.9776 20.7828L13.675 20.0346C13.4974 19.9721 13.3435 19.856 13.2347 19.7023C13.1259 19.5487 13.0675 19.365 13.0675 19.1768C13.0675 18.9885 13.1259 18.8048 13.2347 18.6512C13.3435 18.4975 13.4974 18.3814 13.675 18.3189L15.9776 17.5707C16.6698 17.3332 17.2974 16.9383 17.8112 16.4171C18.3249 15.896 18.7107 15.2627 18.9382 14.5672L19.6864 12.2667C19.7484 12.0883 19.8645 11.9337 20.0184 11.8243C20.1723 11.7149 20.3564 11.6561 20.5453 11.6561C20.7341 11.6561 20.9183 11.7149 21.0722 11.8243C21.2261 11.9337 21.3421 12.0862 21.4042 12.2645ZM31.95 29.3183L30.3031 28.7851C29.8036 28.6182 29.3497 28.3375 28.9773 27.9652C28.6049 27.5928 28.3242 27.1389 28.1574 26.6394L27.6199 24.9947C27.5753 24.8677 27.4925 24.7576 27.3827 24.6798C27.2729 24.6019 27.1417 24.5601 27.0071 24.5601C26.8725 24.5601 26.7413 24.6019 26.6315 24.6798C26.5217 24.7576 26.4389 24.8677 26.3944 24.9947L25.8612 26.6394C25.6973 27.1357 25.4212 27.5875 25.0543 27.9597C24.6874 28.3318 24.2395 28.6143 23.7456 28.7851L22.1008 29.3183C22.0062 29.352 21.9206 29.4072 21.8508 29.4794C21.781 29.5517 21.7288 29.6391 21.6985 29.7349C21.6681 29.8307 21.6602 29.9322 21.6756 30.0315C21.6909 30.1308 21.729 30.2252 21.7869 30.3073C21.8643 30.4148 21.974 30.5008 22.1008 30.5438L23.7456 31.0792C24.2468 31.2463 24.7021 31.5281 25.0753 31.902C25.4486 32.276 25.7294 32.7319 25.8956 33.2335L26.4288 34.8761C26.4733 35.0031 26.5561 35.1131 26.6659 35.1909C26.7757 35.2688 26.9069 35.3106 27.0415 35.3106C27.1761 35.3106 27.3073 35.2688 27.4171 35.1909C27.5269 35.1131 27.6097 35.0031 27.6543 34.8761L28.1896 33.2335C28.3564 32.7333 28.6373 32.2789 29.0101 31.9061C29.3829 31.5333 29.8373 31.2524 30.3375 31.0856L31.9822 30.5524C32.1092 30.5079 32.2192 30.425 32.2971 30.3152C32.3749 30.2055 32.4167 30.0742 32.4167 29.9397C32.4167 29.8051 32.3749 29.6738 32.2971 29.5641C32.2192 29.4543 32.1092 29.3714 31.9822 29.3269L31.95 29.3183ZM10.9165 0.908203V6.2832C10.9165 6.56831 11.0298 6.84174 11.2314 7.04334C11.433 7.24494 11.7064 7.3582 11.9915 7.3582C12.2766 7.3582 12.55 7.24494 12.7516 7.04334C12.9532 6.84174 13.0665 6.56831 13.0665 6.2832V0.908203H15.2165V8.4375C15.2165 8.72261 15.3298 8.99604 15.5314 9.19764C15.733 9.39925 16.0064 9.5125 16.2915 9.5125C16.5766 9.5125 16.85 9.39925 17.0516 9.19764C17.2532 8.99604 17.3665 8.72261 17.3665 8.4375V0.908203H20.5915C20.8766 0.908203 21.15 1.02146 21.3516 1.22306C21.5532 1.42467 21.6665 1.6981 21.6665 1.9832V9.7232C21.284 9.57265 20.8751 9.50066 20.4642 9.51151C20.0533 9.52237 19.6488 9.61586 19.2748 9.7864C18.9009 9.95695 18.565 10.2011 18.2874 10.5042C18.0098 10.8073 17.796 11.1632 17.6589 11.5507L17.6503 11.5765L16.8957 13.9007C16.7721 14.2781 16.5631 14.6219 16.2849 14.9053C16.0067 15.1887 15.6668 15.4041 15.2918 15.5347L13.9846 15.9582H0.166504V1.9832C0.166504 1.6981 0.279763 1.42467 0.481364 1.22306C0.682966 1.02146 0.956396 0.908203 1.2415 0.908203H10.9165ZM11.11 18.1082H0.166504V20.2668C0.166504 21.4072 0.619538 22.501 1.42594 23.3074C2.23235 24.1138 3.32607 24.5668 4.4665 24.5668H7.6915V32.0832C7.6915 32.9385 8.03128 33.7588 8.63609 34.3636C9.24089 34.9684 10.0612 35.3082 10.9165 35.3082C11.7718 35.3082 12.5921 34.9684 13.1969 34.3636C13.8017 33.7588 14.1415 32.9385 14.1415 32.0832V24.5625H16.9731L16.943 24.4701V24.4658C16.7961 24.0222 16.5315 23.6269 16.1776 23.322C15.9221 23.1001 15.6255 22.9306 15.3047 22.8232L12.9827 22.0707L12.959 22.0599C12.5761 21.9247 12.2239 21.7147 11.923 21.442C11.6221 21.1692 11.3785 20.8394 11.2064 20.4715C11.0342 20.1037 10.9371 19.7053 10.9205 19.2996C10.904 18.8938 10.9684 18.4888 11.11 18.1082Z" fill="#C4C4C4"/>
</svg>