<svg width="16" height="16" viewBox="0 0 16 16" fill="none" xmlns="http://www.w3.org/2000/svg">
<path d="M8 15.5C9.48336 15.5 10.9334 15.0601 12.1668 14.236C13.4001 13.4119 14.3614 12.2406 14.9291 10.8701C15.4968 9.49968 15.6453 7.99168 15.3559 6.53683C15.0665 5.08197 14.3522 3.7456 13.3033 2.6967C12.2544 1.64781 10.918 0.933503 9.46318 0.644114C8.00832 0.354725 6.50032 0.50325 5.12987 1.07091C3.75943 1.63856 2.58809 2.59986 1.76398 3.83323C0.939867 5.0666 0.5 6.51664 0.5 8C0.5 9.2 0.781667 10.3333 1.28333 11.3392C1.66083 12.0983 1.13583 13.1225 0.935833 13.87C0.891525 14.0353 0.891517 14.2094 0.935811 14.3747C0.980105 14.5401 1.06714 14.6908 1.18817 14.8118C1.30919 14.9329 1.45995 15.0199 1.62528 15.0642C1.7906 15.1085 1.96468 15.1085 2.13 15.0642C2.8775 14.8642 3.90167 14.3392 4.66083 14.7175C5.69851 15.2327 6.84145 15.5006 8 15.5Z" stroke="white" stroke-width="0.75" stroke-linecap="round" stroke-linejoin="round"/>
</svg>
