<svg xmlns="http://www.w3.org/2000/svg" width="22" height="22" viewBox="0 0 22 22" fill="none">
  <path d="M12 2.002C11.53 2.00067 11.03 2 10.5 2C6.022 2 3.782 2 2.391 3.391C1 4.782 1 7.021 1 11.5C1 15.978 1 18.218 2.391 19.609C3.782 21 6.021 21 10.5 21C14.978 21 17.218 21 18.609 19.609C20 18.218 20 15.979 20 11.5C20 10.97 19.9993 10.47 19.998 10" stroke="currentColor" stroke-width="1.5" stroke-linecap="round" stroke-linejoin="round"/>
  <path d="M6 16.5C8.332 14.058 12.643 13.943 15 16.5M17.5 1L17.758 1.697C18.096 2.611 18.265 3.068 18.598 3.401C18.932 3.735 19.389 3.904 20.303 4.242L21 4.5L20.303 4.758C19.389 5.096 18.932 5.265 18.599 5.598C18.265 5.932 18.096 6.389 17.758 7.303L17.5 8L17.242 7.303C16.904 6.389 16.735 5.932 16.402 5.599C16.068 5.265 15.611 5.096 14.697 4.758L14 4.5L14.697 4.242C15.611 3.904 16.068 3.735 16.401 3.402C16.735 3.068 16.904 2.611 17.242 1.697L17.5 1ZM12.995 9C12.995 10.38 11.875 11.5 10.492 11.5C10.1634 11.5005 9.83784 11.4362 9.53406 11.3108C9.23029 11.1854 8.95422 11.0014 8.72165 10.7692C8.48908 10.537 8.30457 10.2612 8.17868 9.95763C8.0528 9.65406 7.988 9.32864 7.988 9C7.988 7.62 9.108 6.5 10.492 6.5C10.8206 6.49961 11.146 6.56398 11.4496 6.68944C11.7533 6.8149 12.0292 6.99899 12.2617 7.23117C12.4942 7.46336 12.6786 7.73909 12.8044 8.0426C12.9302 8.34611 12.995 8.67144 12.995 9Z" stroke="currentColor" stroke-width="1.5" stroke-linecap="round" stroke-linejoin="round"/>
</svg>