<svg width="18" height="19" viewBox="0 0 18 19" fill="none" xmlns="http://www.w3.org/2000/svg">
<path fill-rule="evenodd" clip-rule="evenodd" d="M8.9997 11.0912L12.977 15.0685C13.188 15.2795 13.4742 15.3981 13.7727 15.3981C14.0712 15.3981 14.3574 15.2795 14.5685 15.0685C14.7795 14.8574 14.8981 14.5712 14.8981 14.2727C14.8981 13.9743 14.7795 13.688 14.5685 13.477L10.5897 9.49972L14.5677 5.52247C14.6722 5.41797 14.755 5.29392 14.8115 5.1574C14.868 5.02089 14.8971 4.87458 14.897 4.72683C14.897 4.57908 14.8679 4.43278 14.8113 4.29629C14.7547 4.1598 14.6718 4.03579 14.5673 3.93134C14.4628 3.82689 14.3388 3.74405 14.2023 3.68754C14.0657 3.63103 13.9194 3.60196 13.7717 3.602C13.6239 3.60203 13.4776 3.63117 13.3412 3.68774C13.2047 3.74431 13.0807 3.82722 12.9762 3.93172L8.9997 7.90897L5.02245 3.93172C4.91873 3.82422 4.79463 3.73846 4.6574 3.67943C4.52018 3.62041 4.37257 3.58931 4.22319 3.58794C4.07382 3.58657 3.92567 3.61496 3.78738 3.67147C3.6491 3.72797 3.52345 3.81144 3.41777 3.91702C3.31209 4.0226 3.2285 4.14817 3.17187 4.2864C3.11524 4.42463 3.0867 4.57276 3.08793 4.72213C3.08916 4.87151 3.12012 5.01915 3.17901 5.15643C3.23791 5.29371 3.32355 5.41789 3.43095 5.52172L7.4097 9.49972L3.4317 13.4777C3.3243 13.5815 3.23866 13.7057 3.17976 13.843C3.12087 13.9803 3.08991 14.1279 3.08868 14.2773C3.08745 14.4267 3.11599 14.5748 3.17262 14.713C3.22925 14.8513 3.31284 14.9768 3.41852 15.0824C3.5242 15.188 3.64985 15.2715 3.78813 15.328C3.92642 15.3845 4.07457 15.4129 4.22394 15.4115C4.37332 15.4101 4.52093 15.379 4.65815 15.32C4.79538 15.261 4.91948 15.1752 5.0232 15.0677L8.9997 11.0912Z" fill="currentColor"/>
</svg>
