<svg width="38" height="37" viewBox="0 0 38 37" fill="none" xmlns="http://www.w3.org/2000/svg">
<rect x="0.5" y="0.5" width="36.9024" height="36" rx="18" fill="#1B1B1D" fill-opacity="0.8"/>
<rect x="0.5" y="0.5" width="36.9024" height="36" rx="18" stroke="#F39C12"/>
<path d="M12.9512 26.5C12.6678 26.5 12.4305 26.404 12.2392 26.212C12.0478 26.02 11.9518 25.7827 11.9512 25.5C11.9505 25.2173 12.0465 24.98 12.2392 24.788C12.4318 24.596 12.6692 24.5 12.9512 24.5H24.9512C25.2345 24.5 25.4722 24.596 25.6642 24.788C25.8562 24.98 25.9518 25.2173 25.9512 25.5C25.9505 25.7827 25.8545 26.0203 25.6632 26.213C25.4718 26.4057 25.2345 26.5013 24.9512 26.5H12.9512ZM13.6512 23C13.1678 23 12.7388 22.8417 12.3642 22.525C11.9895 22.2083 11.7602 21.8083 11.6762 21.325L10.6762 14.975C10.6428 14.975 10.6055 14.9793 10.5642 14.988C10.5228 14.9967 10.4852 15.0007 10.4512 15C10.0345 15 9.68051 14.8543 9.38917 14.563C9.09784 14.2717 8.95184 13.9173 8.95117 13.5C8.95051 13.0827 9.09651 12.7287 9.38917 12.438C9.68184 12.1473 10.0358 12.0013 10.4512 12C10.8665 11.9987 11.2208 12.1447 11.5142 12.438C11.8075 12.7313 11.9532 13.0853 11.9512 13.5C11.9512 13.6167 11.9385 13.725 11.9132 13.825C11.8878 13.925 11.8588 14.0167 11.8262 14.1L14.9512 15.5L18.0762 11.225C17.8928 11.0917 17.7428 10.9167 17.6262 10.7C17.5095 10.4833 17.4512 10.25 17.4512 10C17.4512 9.58334 17.5972 9.229 17.8892 8.937C18.1812 8.645 18.5352 8.49934 18.9512 8.5C19.3672 8.50067 19.7215 8.64667 20.0142 8.938C20.3068 9.22934 20.4525 9.58334 20.4512 10C20.4512 10.25 20.3928 10.4833 20.2762 10.7C20.1595 10.9167 20.0095 11.0917 19.8262 11.225L22.9512 15.5L26.0762 14.1C26.0428 14.0167 26.0135 13.925 25.9882 13.825C25.9628 13.725 25.9505 13.6167 25.9512 13.5C25.9512 13.0833 26.0972 12.729 26.3892 12.437C26.6812 12.145 27.0352 11.9993 27.4512 12C27.8672 12.0007 28.2215 12.1467 28.5142 12.438C28.8068 12.7293 28.9525 13.0833 28.9512 13.5C28.9498 13.9167 28.8042 14.271 28.5142 14.563C28.2242 14.855 27.8698 15.0007 27.4512 15C27.4178 15 27.3805 14.996 27.3392 14.988C27.2978 14.98 27.2602 14.9757 27.2262 14.975L26.2262 21.325C26.1428 21.8083 25.9138 22.2083 25.5392 22.525C25.1645 22.8417 24.7352 23 24.2512 23H13.6512Z" fill="#F39C12"/>
</svg>
