<svg xmlns="http://www.w3.org/2000/svg" width="28" height="28" viewBox="0 0 28 28" fill="none">
  <path d="M18.707 11.5H25.959C25.9862 11.4194 26.0004 11.335 26.001 11.25L25.999 11.315L26.001 11.215L25.991 11.127L25.974 11.05L25.963 11.012L25.92 10.91L21.913 3.397L21.859 3.31C21.7893 3.21379 21.6977 3.13551 21.5919 3.08161C21.486 3.02772 21.3688 2.99974 21.25 3H16C16.1653 2.99994 16.3261 3.05453 16.4572 3.15526C16.5883 3.25599 16.6825 3.39723 16.725 3.557L18.725 11.057C18.7638 11.2031 18.7575 11.3575 18.707 11.5Z" fill="#616161"/>
  <path d="M18.707 11.5H25.959C25.9862 11.4194 26.0004 11.335 26.001 11.25L25.999 11.315L26.001 11.215L25.991 11.127L25.974 11.05L25.963 11.012L25.92 10.91L21.913 3.397L21.859 3.31C21.7893 3.21379 21.6977 3.13551 21.5919 3.08161C21.486 3.02772 21.3688 2.99974 21.25 3H16C16.1653 2.99994 16.3261 3.05453 16.4572 3.15526C16.5883 3.25599 16.6825 3.39723 16.725 3.557L18.725 11.057C18.7638 11.2031 18.7575 11.3575 18.707 11.5Z" fill="url(#paint0_linear_6154_13350)"/>
  <path d="M9.293 11.5C9.2425 11.3575 9.23622 11.2031 9.275 11.057L11.275 3.557C11.3175 3.39723 11.4117 3.25599 11.5428 3.15526C11.6739 3.05453 11.8347 2.99994 12 3H6.751L6.649 3.007C6.53147 3.02309 6.41942 3.06682 6.32208 3.13462C6.22473 3.20242 6.14485 3.29234 6.089 3.397L2.089 10.897L2.062 10.954L2.028 11.05L2.018 11.09L2.004 11.188V11.315L2.027 11.446L2.047 11.5H9.293Z" fill="#9F9F9F"/>
  <path d="M9.293 11.5C9.2425 11.3575 9.23622 11.2031 9.275 11.057L11.275 3.557C11.3175 3.39723 11.4117 3.25599 11.5428 3.15526C11.6739 3.05453 11.8347 2.99994 12 3H6.751L6.649 3.007C6.53147 3.02309 6.41942 3.06682 6.32208 3.13462C6.22473 3.20242 6.14485 3.29234 6.089 3.397L2.089 10.897L2.062 10.954L2.028 11.05L2.018 11.09L2.004 11.188V11.315L2.027 11.446L2.047 11.5H9.293Z" fill="url(#paint1_linear_6154_13350)"/>
  <path d="M19.707 11.5C19.7575 11.3575 19.7638 11.2031 19.725 11.057L17.725 3.557C17.6825 3.39723 17.5883 3.25599 17.4572 3.15526C17.3261 3.05453 17.1653 2.99994 17 3H11C10.8347 2.99994 10.6739 3.05453 10.5428 3.15526C10.4117 3.25599 10.3176 3.39723 10.275 3.557L8.275 11.057C8.23622 11.2031 8.2425 11.3575 8.293 11.5H19.707Z" fill="#D9D9D9"/>
  <path d="M19.707 11.5C19.7575 11.3575 19.7638 11.2031 19.725 11.057L17.725 3.557C17.6825 3.39723 17.5883 3.25599 17.4572 3.15526C17.3261 3.05453 17.1653 2.99994 17 3H11C10.8347 2.99994 10.6739 3.05453 10.5428 3.15526C10.4117 3.25599 10.3176 3.39723 10.275 3.557L8.275 11.057C8.23622 11.2031 8.2425 11.3575 8.293 11.5H19.707Z" fill="url(#paint2_linear_6154_13350)"/>
  <path d="M13.5 24.81C13.5887 24.7306 13.6573 24.6312 13.7 24.52L18.7 11.52C18.757 11.3722 18.7658 11.2101 18.725 11.057L18.71 11H25.958L25.963 11.012L25.974 11.05L25.991 11.127L26.001 11.215L25.999 11.315L26.002 11.25C26.0007 11.3516 25.98 11.4521 25.941 11.546L25.911 11.606L25.871 11.672L25.819 11.741L14.6 24.705C14.5039 24.8333 14.3683 24.9264 14.214 24.97L14.156 24.984L14.059 24.998L14 25L13.9 24.993L13.815 24.977L13.711 24.943L13.686 24.931C13.6176 24.9009 13.5545 24.8601 13.499 24.81" fill="url(#paint3_linear_6154_13350)"/>
  <path d="M9.29 11H2.046L2.028 11.05L2.018 11.09L2.004 11.188V11.315L2.027 11.446L2.062 11.546L2.11 11.639L2.172 11.726L13.444 24.753C13.5147 24.8317 13.5953 24.891 13.686 24.931L13.712 24.943L13.815 24.977L13.9 24.993L14.001 25L14.06 24.998L14.157 24.984L14.215 24.97C14.3222 24.9409 14.4209 24.8868 14.503 24.812C14.4128 24.7321 14.3431 24.6316 14.3 24.519L9.3 11.519C9.24319 11.3715 9.23444 11.2098 9.275 11.057L9.29 11Z" fill="#626262"/>
  <path d="M9.29 11H2.046L2.028 11.05L2.018 11.09L2.004 11.188V11.315L2.027 11.446L2.062 11.546L2.11 11.639L2.172 11.726L13.444 24.753C13.5147 24.8317 13.5953 24.891 13.686 24.931L13.712 24.943L13.815 24.977L13.9 24.993L14.001 25L14.06 24.998L14.157 24.984L14.215 24.97C14.3222 24.9409 14.4209 24.8868 14.503 24.812C14.4128 24.7321 14.3431 24.6316 14.3 24.519L9.3 11.519C9.24319 11.3715 9.23444 11.2098 9.275 11.057L9.29 11Z" fill="url(#paint4_linear_6154_13350)"/>
  <path d="M19.71 11H8.29L8.275 11.057C8.23444 11.2098 8.24319 11.3715 8.3 11.519L13.3 24.519C13.3544 24.6605 13.4504 24.7822 13.5754 24.868C13.7004 24.9538 13.8484 24.9997 14 24.9997C14.1516 24.9997 14.2996 24.9538 14.4246 24.868C14.5496 24.7822 14.6456 24.6605 14.7 24.519L19.7 11.519C19.7568 11.3715 19.7656 11.2098 19.725 11.057L19.71 11Z" fill="#AEAEAE"/>
  <path d="M19.71 11H8.29L8.275 11.057C8.23444 11.2098 8.24319 11.3715 8.3 11.519L13.3 24.519C13.3544 24.6605 13.4504 24.7822 13.5754 24.868C13.7004 24.9538 13.8484 24.9997 14 24.9997C14.1516 24.9997 14.2996 24.9538 14.4246 24.868C14.5496 24.7822 14.6456 24.6605 14.7 24.519L19.7 11.519C19.7568 11.3715 19.7656 11.2098 19.725 11.057L19.71 11Z" fill="url(#paint5_linear_6154_13350)"/>
  <path d="M21.251 3C21.3696 2.9999 21.4866 3.02795 21.5923 3.08184C21.698 3.13573 21.7894 3.21392 21.859 3.31L21.913 3.397L25.92 10.91L25.963 11.012L25.974 11.05L25.991 11.127L26.001 11.215L25.999 11.315L26.001 11.25C26 11.3516 25.9796 11.452 25.941 11.546L25.911 11.606L25.871 11.672L25.819 11.741L14.6 24.705C14.5039 24.8333 14.3683 24.9264 14.214 24.97L14.156 24.984L14.059 24.998L14 25L13.9 24.993L13.814 24.977L13.711 24.943L13.685 24.931C13.5924 24.8899 13.5098 24.8291 13.443 24.753L2.172 11.727L2.11 11.64L2.062 11.547L2.027 11.447L2.004 11.317V11.189L2.019 11.09L2.029 11.05L2.062 10.955L2.09 10.898L6.09 3.398C6.14575 3.29346 6.22547 3.20362 6.32264 3.13583C6.4198 3.06804 6.53164 3.02423 6.649 3.008L6.75 3H21.251Z" fill="url(#paint6_linear_6154_13350)" fill-opacity="0.7"/>
  <defs>
    <linearGradient id="paint0_linear_6154_13350" x1="19.572" y1="3" x2="25.206" y2="15.786" gradientUnits="userSpaceOnUse">
      <stop stop-color="#F5542C"/>
      <stop offset="1" stop-color="#FFB61C"/>
    </linearGradient>
    <linearGradient id="paint1_linear_6154_13350" x1="10.572" y1="-0.542" x2="5.639" y2="10.114" gradientUnits="userSpaceOnUse">
      <stop stop-color="#FFB61C"/>
      <stop offset="1" stop-color="#29C3FF"/>
    </linearGradient>
    <linearGradient id="paint2_linear_6154_13350" x1="14" y1="3" x2="14" y2="13.625" gradientUnits="userSpaceOnUse">
      <stop stop-color="#F5542C"/>
      <stop offset="1" stop-color="#367AF2"/>
    </linearGradient>
    <linearGradient id="paint3_linear_6154_13350" x1="28.943" y1="4" x2="16.611" y2="24.154" gradientUnits="userSpaceOnUse">
      <stop stop-color="#D02900"/>
      <stop offset="1" stop-color="#F5542C"/>
    </linearGradient>
    <linearGradient id="paint4_linear_6154_13350" x1="4.21" y1="8.2" x2="12.359" y2="25.32" gradientUnits="userSpaceOnUse">
      <stop stop-color="#0094F0"/>
      <stop offset="1" stop-color="#6CE0FF"/>
    </linearGradient>
    <linearGradient id="paint5_linear_6154_13350" x1="13.992" y1="6.1" x2="13.992" y2="25" gradientUnits="userSpaceOnUse">
      <stop stop-color="#CE340E"/>
      <stop offset="1" stop-color="#0FAFFF"/>
    </linearGradient>
    <linearGradient id="paint6_linear_6154_13350" x1="14.0025" y1="3" x2="14.0025" y2="25" gradientUnits="userSpaceOnUse">
      <stop stop-color="#F5542C"/>
      <stop offset="1" stop-color="#F5542C"/>
    </linearGradient>
  </defs>
</svg>