<svg xmlns="http://www.w3.org/2000/svg" width="22" height="22" viewBox="0 0 22 22" fill="none">
<path d="M7.79167 16.0417C7.48611 17.2639 7.02778 18.3333 6.41667 19.25C3.97222 18.3333 2.13889 17.1111 0.916668 15.5833C0.916668 11.3056 1.83333 7.63889 3.66667 4.58333C5.19445 3.66667 6.72222 3.05556 8.25 2.75L9.16667 4.58333C10.3889 4.27778 11.6111 4.27778 12.8333 4.58333L13.75 2.75C15.2778 3.05556 16.8056 3.66667 18.3333 4.58333C20.1667 7.63889 21.0833 11.3056 21.0833 15.5833C19.8611 17.1111 18.0278 18.3333 15.5833 19.25C14.9722 18.3333 14.5139 17.2639 14.2083 16.0417M6.41667 15.5833C9.47222 16.8056 12.5278 16.8056 15.5833 15.5833" stroke="#C4C4C4" stroke-width="1.5" stroke-linecap="round" stroke-linejoin="round"/>
<path d="M7.33333 11.9163C7.8396 11.9163 8.25 11.5059 8.25 10.9997C8.25 10.4934 7.8396 10.083 7.33333 10.083C6.82707 10.083 6.41667 10.4934 6.41667 10.9997C6.41667 11.5059 6.82707 11.9163 7.33333 11.9163Z" stroke="#C4C4C4" stroke-linecap="round" stroke-linejoin="round"/>
<path d="M14.6667 11.9163C15.1729 11.9163 15.5833 11.5059 15.5833 10.9997C15.5833 10.4934 15.1729 10.083 14.6667 10.083C14.1604 10.083 13.75 10.4934 13.75 10.9997C13.75 11.5059 14.1604 11.9163 14.6667 11.9163Z" stroke="#C4C4C4" stroke-linecap="round" stroke-linejoin="round"/>
</svg>