<svg width="34" height="26" viewBox="0 0 34 26" fill="none" xmlns="http://www.w3.org/2000/svg">
<rect x="0.5" y="0.5" width="33" height="25" rx="12.5" fill="#222224"/>
<rect x="0.5" y="0.5" width="33" height="25" rx="12.5" stroke="#4B4B4B"/>
<path d="M19.25 15.9999L16.25 18.9999H22.25C23.075 18.9999 23.75 18.3249 23.75 17.4999C23.75 16.6749 23.075 15.9999 22.25 15.9999H19.25ZM17.045 9.39238L10.4675 15.9699C10.3325 16.1049 10.25 16.2999 10.25 16.4949V18.2499C10.25 18.6624 10.5875 18.9999 11 18.9999H12.755C12.9575 18.9999 13.145 18.9174 13.2875 18.7824L19.865 12.2049L17.045 9.39238ZM22.0325 10.0299C22.102 9.96049 22.1572 9.87808 22.1948 9.78735C22.2325 9.69662 22.2518 9.59936 22.2518 9.50113C22.2518 9.4029 22.2325 9.30564 22.1948 9.21491C22.1572 9.12418 22.102 9.04177 22.0325 8.97238L20.2775 7.21738C20.2081 7.14785 20.1257 7.09269 20.035 7.05506C19.9442 7.01742 19.847 6.99805 19.7487 6.99805C19.6505 6.99805 19.5533 7.01742 19.4625 7.05506C19.3718 7.09269 19.2894 7.14785 19.22 7.21738L17.8475 8.58988L20.66 11.4024L22.0325 10.0299Z" fill="#C4C4C4"/>
</svg>
