<svg xmlns="http://www.w3.org/2000/svg" width="23" height="23" viewBox="0 0 23 23" fill="none">
<path d="M5.08325 5.40234H16.9999C17.7293 5.40234 18.4287 5.69208 18.9445 6.2078C19.4602 6.72353 19.7499 7.423 19.7499 8.15234V16.4023C19.7499 17.1317 19.4602 17.8312 18.9445 18.3469C18.4287 18.8626 17.7293 19.1523 16.9999 19.1523H5.08325C4.35391 19.1523 3.65443 18.8626 3.13871 18.3469C2.62298 17.8312 2.33325 17.1317 2.33325 16.4023V8.15234C2.33325 7.423 2.62298 6.72353 3.13871 6.2078C3.65443 5.69208 4.35391 5.40234 5.08325 5.40234ZM5.08325 6.31901C4.62492 6.31901 4.22159 6.47484 3.90992 6.74984L11.0416 11.3607L18.1733 6.74984C17.8616 6.47484 17.4583 6.31901 16.9999 6.31901H5.08325ZM11.0416 12.4698L3.36909 7.49234C3.29575 7.69401 3.24992 7.92318 3.24992 8.15234V16.4023C3.24992 16.8886 3.44307 17.3549 3.78689 17.6987C4.13071 18.0425 4.59702 18.2357 5.08325 18.2357H16.9999C17.4861 18.2357 17.9525 18.0425 18.2963 17.6987C18.6401 17.3549 18.8333 16.8886 18.8333 16.4023V8.15234C18.8333 7.92318 18.7874 7.69401 18.7141 7.49234L11.0416 12.4698Z" fill="currentColor"/>
</svg>