<svg width="30" height="30" viewBox="0 0 30 30" fill="none" xmlns="http://www.w3.org/2000/svg">
<path fill-rule="evenodd" clip-rule="evenodd" d="M15 27C8.3724 27 3 21.6276 3 15C3 8.3724 8.3724 3 15 3C21.6276 3 27 8.3724 27 15C27 21.6276 21.6276 27 15 27ZM14.0844 7.9632L14.2164 17.0784H15.7824L15.9144 7.9632H14.0844ZM14.9952 21.1236C15.6096 21.1236 16.0776 20.664 16.0776 20.0652C16.0776 19.4652 15.6096 19.0068 14.9952 19.0068C14.8547 19.0042 14.7151 19.0298 14.5846 19.0818C14.4541 19.1339 14.3353 19.2115 14.2352 19.3101C14.1351 19.4086 14.0556 19.5262 14.0015 19.6559C13.9474 19.7855 13.9197 19.9247 13.92 20.0652C13.92 20.664 14.3952 21.1236 14.9952 21.1236Z" fill="#F5542C"/>
</svg>
