<svg xmlns="http://www.w3.org/2000/svg" width="16" height="16" viewBox="0 0 16 16" fill="none">
  <g clip-path="url(#clip0_3777_9852)">
    <path d="M1.6931 3.14033L2.16643 2.66699L13.3331 13.8337L12.8598 14.307L10.6331 12.0737C9.71977 12.4537 8.71977 12.667 7.66643 12.667C4.62643 12.667 1.99977 10.9003 0.759766 8.33366C1.40643 7.00033 2.41977 5.88699 3.66643 5.12033L1.6931 3.14033ZM7.66643 12.0003C8.52643 12.0003 9.3531 11.847 10.1131 11.5603L9.36643 10.807C8.87977 11.1403 8.29977 11.3337 7.66643 11.3337C5.99977 11.3337 4.66643 10.0003 4.66643 8.33366C4.66643 7.70033 4.85977 7.12033 5.1931 6.63366L4.15977 5.60699C3.04353 6.25731 2.12608 7.20011 1.50643 8.33366C2.6931 10.5203 4.99977 12.0003 7.66643 12.0003ZM13.8264 8.33366C12.6398 6.14699 10.3331 4.66699 7.66643 4.66699C6.89977 4.66699 6.1531 4.79366 5.45977 5.02033L4.93977 4.50033C5.78643 4.17366 6.70643 4.00033 7.66643 4.00033C10.7064 4.00033 13.3331 5.76699 14.5731 8.33366C13.9673 9.59087 13.0289 10.6583 11.8598 11.4203L11.3798 10.9337C12.3998 10.2937 13.2464 9.40033 13.8264 8.33366ZM7.66643 5.33366C9.3331 5.33366 10.6664 6.66699 10.6664 8.33366C10.6664 8.88033 10.5198 9.38699 10.2664 9.82699L9.7731 9.33366C9.91977 9.02699 9.99977 8.69366 9.99977 8.33366C9.99977 7.71482 9.75393 7.12133 9.31635 6.68374C8.87876 6.24616 8.28527 6.00033 7.66643 6.00033C7.30643 6.00033 6.9731 6.08033 6.66643 6.22699L6.1731 5.73366C6.6131 5.48033 7.11977 5.33366 7.66643 5.33366ZM5.3331 8.33366C5.3331 8.9525 5.57893 9.54599 6.01652 9.98357C6.4541 10.4212 7.04759 10.667 7.66643 10.667C8.1131 10.667 8.52643 10.5403 8.87977 10.3337L5.66643 7.12033C5.45977 7.47366 5.3331 7.88699 5.3331 8.33366Z" fill="black"/>
    <path d="M11.9221 12.865C10.7494 13.6088 9.3888 14.0027 8.00009 14.0004C4.40542 14.0004 1.41475 11.4137 0.788086 8.00035C1.07536 6.4482 1.85581 5.03017 3.01342 3.95702L0.929419 1.87235L1.87209 0.929688L15.0714 14.1284L14.1288 15.0717L11.9221 12.865ZM3.95742 4.90035C3.05135 5.72413 2.42002 6.80621 2.14875 8.00035C2.35695 8.91133 2.77493 9.76112 3.36942 10.4821C3.96391 11.203 4.7185 11.7753 5.57312 12.1532C6.42774 12.5312 7.35878 12.7044 8.29215 12.6591C9.22551 12.6138 10.1354 12.3513 10.9494 11.8924L9.59742 10.5404C9.02188 10.9029 8.34022 11.0591 7.66424 10.9833C6.98827 10.9075 6.35811 10.6043 5.87713 10.1233C5.39615 9.64233 5.0929 9.01217 5.01713 8.3362C4.94135 7.66022 5.09754 6.97856 5.46009 6.40302L3.95742 4.90035ZM8.60942 9.55235L6.44809 7.39169C6.32946 7.69364 6.30154 8.02366 6.36776 8.34125C6.43397 8.65884 6.59143 8.95021 6.82083 9.17961C7.05023 9.40901 7.3416 9.56647 7.65919 9.63268C7.97678 9.6989 8.30746 9.67098 8.60942 9.55235ZM13.8708 11.0624L12.9168 10.1084C13.3634 9.47363 13.6812 8.75743 13.8521 8.00035C13.6709 7.20676 13.3303 6.45831 12.8508 5.80049C12.3713 5.14266 11.7631 4.58922 11.0631 4.17379C10.3631 3.75837 9.58588 3.48965 8.77876 3.38396C7.97165 3.27828 7.15147 3.33784 6.36809 3.55902L5.31609 2.50702C6.14742 2.18035 7.05342 2.00035 8.00009 2.00035C11.5948 2.00035 14.5854 4.58702 15.2128 8.00035C15.0085 9.11103 14.5487 10.1592 13.8708 11.0624ZM7.81542 5.00635C7.87631 5.00235 7.93786 5.00035 8.00009 5.00035C8.4097 5.0003 8.81498 5.08413 9.19096 5.24667C9.56693 5.40921 9.90564 5.64703 10.1862 5.94546C10.4668 6.24389 10.6833 6.59662 10.8223 6.9819C10.9614 7.36718 11.0201 7.77686 10.9948 8.18569L7.81542 5.00635Z" fill="#667085"/>
  </g>
  <defs>
    <clipPath id="clip0_3777_9852">
      <rect width="16" height="16" fill="white"/>
    </clipPath>
  </defs>
</svg>