<svg xmlns="http://www.w3.org/2000/svg" width="22" height="22" viewBox="0 0 22 22" fill="none">
<path d="M1.83334 7.33333C1.83334 7.33333 5.93726 2.75 11 2.75C16.0628 2.75 20.1667 7.33333 20.1667 7.33333" stroke="currentColor" stroke-width="1.375" stroke-linecap="round" stroke-linejoin="round"/>
<path d="M19.7487 11.9573C20.0273 12.3478 20.1667 12.5439 20.1667 12.8327C20.1667 13.1223 20.0273 13.3176 19.7487 13.7081C18.4965 15.4644 15.2983 19.2493 11 19.2493C6.70084 19.2493 3.50351 15.4635 2.25134 13.7081C1.97268 13.3176 1.83334 13.1214 1.83334 12.8327C1.83334 12.543 1.97268 12.3478 2.25134 11.9573C3.50351 10.2009 6.70176 6.41602 11 6.41602C15.2992 6.41602 18.4965 10.2018 19.7487 11.9573Z" stroke="currentColor" stroke-width="1.375" stroke-linecap="round" stroke-linejoin="round"/>
<path d="M13.75 12.834C13.75 12.1046 13.4603 11.4052 12.9445 10.8894C12.4288 10.3737 11.7293 10.084 11 10.084C10.2707 10.084 9.57118 10.3737 9.05546 10.8894C8.53973 11.4052 8.25 12.1046 8.25 12.834C8.25 13.5633 8.53973 14.2628 9.05546 14.7785C9.57118 15.2943 10.2707 15.584 11 15.584C11.7293 15.584 12.4288 15.2943 12.9445 14.7785C13.4603 14.2628 13.75 13.5633 13.75 12.834Z" stroke="currentColor" stroke-width="1.375" stroke-linecap="round" stroke-linejoin="round"/>
</svg>