<svg width="88" height="25" viewBox="0 0 88 25" fill="none" xmlns="http://www.w3.org/2000/svg">
<path d="M5.83333 7.51324C5.83333 8.13204 5.5875 8.72549 5.14992 9.16304C4.71233 9.60059 4.11884 9.84641 3.5 9.84641C2.88116 9.84641 2.28767 9.60059 1.85008 9.16304C1.4125 8.72549 1.16667 8.13204 1.16667 7.51324C1.16667 6.89445 1.4125 6.301 1.85008 5.86344C2.28767 5.42589 2.88116 5.18008 3.5 5.18008C4.11884 5.18008 4.71233 5.42589 5.14992 5.86344C5.5875 6.301 5.83333 6.89445 5.83333 7.51324ZM1.36111 10.6241C1.00012 10.6241 0.653918 10.7675 0.39866 11.0228C0.143402 11.278 0 11.6242 0 11.9851V15.6793C0 16.6075 0.368749 17.4977 1.02513 18.154C1.6815 18.8103 2.57174 19.1791 3.5 19.1791C4.42826 19.1791 5.3185 18.8103 5.97487 18.154C6.63125 17.4977 7 16.6075 7 15.6793V11.9851C7 11.6242 6.8566 11.278 6.60134 11.0228C6.34608 10.7675 5.99988 10.6241 5.63889 10.6241H1.36111ZM6.11333 19.0655C6.63167 18.6663 7.05133 18.1534 7.33992 17.5662C7.62851 16.9791 7.77832 16.3335 7.77778 15.6793V11.9851C7.77778 11.468 7.59422 10.9943 7.28856 10.6241H9.13889C9.89022 10.6241 10.5 11.2339 10.5 11.9851V15.6793C10.5001 16.2145 10.3774 16.7426 10.1415 17.223C9.90547 17.7033 9.56245 18.1232 9.13878 18.4502C8.71511 18.7773 8.22207 19.0028 7.69757 19.1095C7.17308 19.2161 6.63111 19.2011 6.11333 19.0655ZM6.61111 7.51324C6.61111 8.29096 6.32567 9.00102 5.85433 9.54621C6.20938 9.74598 6.61055 9.84932 7.01794 9.84594C7.42532 9.84256 7.82472 9.73259 8.17641 9.52695C8.52809 9.32132 8.81981 9.0272 9.02253 8.67385C9.22526 8.32049 9.33192 7.92022 9.33192 7.51285C9.33192 7.10548 9.22526 6.70521 9.02253 6.35186C8.81981 5.99851 8.52809 5.70438 8.17641 5.49875C7.82472 5.29312 7.42532 5.18315 7.01794 5.17977C6.61055 5.17639 6.20938 5.27973 5.85433 5.4795C6.32567 6.02546 6.61111 6.7363 6.61111 7.51324ZM9.61333 19.0655C10.1317 18.6663 10.5513 18.1534 10.8399 17.5662C11.1285 16.9791 11.2783 16.3335 11.2778 15.6793V11.9851C11.2778 11.468 11.0942 10.9943 10.7886 10.6241H12.6389C13.3902 10.6241 14 11.2339 14 11.9851V15.6793C14.0001 16.2145 13.8774 16.7426 13.6415 17.223C13.4055 17.7033 13.0625 18.1232 12.6388 18.4502C12.2151 18.7773 11.7221 19.0028 11.1976 19.1095C10.6731 19.2161 10.1311 19.2011 9.61333 19.0655ZM10.1111 7.51324C10.1111 8.29096 9.82567 9.00102 9.35433 9.54621C9.70938 9.74598 10.1106 9.84932 10.5179 9.84594C10.9253 9.84256 11.3247 9.73259 11.6764 9.52695C12.0281 9.32132 12.3198 9.0272 12.5225 8.67385C12.7253 8.32049 12.8319 7.92022 12.8319 7.51285C12.8319 7.10548 12.7253 6.70521 12.5225 6.35186C12.3198 5.99851 12.0281 5.70438 11.6764 5.49875C11.3247 5.29312 10.9253 5.18315 10.5179 5.17977C10.1106 5.17639 9.70938 5.27973 9.35433 5.4795C9.82567 6.02624 10.1111 6.73708 10.1111 7.51324Z" fill="#0079FF"/>
<path d="M18 12.1797H32" stroke="url(#paint0_linear_4872_11908)" stroke-linecap="round"/>
<path d="M46.2194 9.63122L46.5442 10.6352C46.645 10.9407 46.8156 11.2182 47.0423 11.4456C47.2691 11.673 47.5456 11.844 47.8499 11.9448L48.8495 12.271L48.8691 12.2767C48.9462 12.3039 49.013 12.3545 49.0602 12.4215C49.1075 12.4885 49.1328 12.5686 49.1328 12.6507C49.1328 12.7328 49.1075 12.8129 49.0602 12.8799C49.013 12.9469 48.9462 12.9975 48.8691 13.0247L47.8695 13.351C47.5652 13.4518 47.2887 13.6227 47.0619 13.8501C46.8352 14.0775 46.6646 14.3551 46.5638 14.6606L46.239 15.6636C46.2119 15.7411 46.1615 15.8081 46.0948 15.8556C46.0281 15.903 45.9483 15.9285 45.8666 15.9285C45.7849 15.9285 45.7052 15.903 45.6384 15.8556C45.5717 15.8081 45.5213 15.7411 45.4942 15.6636L45.1685 14.6606C45.0525 14.3057 44.8429 13.9892 44.5618 13.7447C44.3576 13.5667 44.1203 13.431 43.8637 13.3453L42.8641 13.0191C42.787 12.9919 42.7202 12.9412 42.673 12.8742C42.6258 12.8072 42.6004 12.7272 42.6004 12.6451C42.6004 12.563 42.6258 12.4829 42.673 12.4159C42.7202 12.3489 42.787 12.2983 42.8641 12.271L43.8637 11.9448C44.1642 11.8413 44.4366 11.6691 44.6596 11.4418C44.8826 11.2146 45.0501 10.9385 45.1489 10.6352L45.4737 9.63216C45.5006 9.5544 45.551 9.48699 45.6178 9.43928C45.6846 9.39158 45.7646 9.36595 45.8465 9.36595C45.9285 9.36595 46.0085 9.39158 46.0753 9.43928C46.1421 9.48699 46.1925 9.55346 46.2194 9.63122ZM50.7974 17.067L50.0824 16.8345C49.8656 16.7617 49.6686 16.6393 49.5069 16.477C49.3453 16.3146 49.2234 16.1167 49.151 15.8989L48.9176 15.1818C48.8983 15.1264 48.8624 15.0784 48.8147 15.0445C48.767 15.0105 48.7101 14.9923 48.6517 14.9923C48.5932 14.9923 48.5363 15.0105 48.4886 15.0445C48.441 15.0784 48.405 15.1264 48.3857 15.1818L48.1542 15.8989C48.0831 16.1153 47.9632 16.3123 47.8039 16.4746C47.6446 16.6368 47.4502 16.76 47.2358 16.8345L46.5218 17.067C46.4807 17.0817 46.4436 17.1057 46.4133 17.1372C46.383 17.1687 46.3603 17.2069 46.3471 17.2486C46.3339 17.2904 46.3305 17.3346 46.3372 17.3779C46.3439 17.4212 46.3604 17.4624 46.3855 17.4982C46.4191 17.545 46.4667 17.5825 46.5218 17.6013L47.2358 17.8347C47.4534 17.9076 47.651 18.0304 47.8131 18.1935C47.9751 18.3566 48.097 18.5553 48.1691 18.774L48.4006 19.4902C48.4199 19.5456 48.4559 19.5936 48.5035 19.6275C48.5512 19.6615 48.6082 19.6797 48.6666 19.6797C48.725 19.6797 48.782 19.6615 48.8296 19.6275C48.8773 19.5936 48.9133 19.5456 48.9326 19.4902L49.165 18.774C49.2374 18.556 49.3593 18.3578 49.5212 18.1953C49.683 18.0327 49.8803 17.9103 50.0974 17.8375L50.8114 17.605C50.8665 17.5856 50.9143 17.5495 50.9481 17.5016C50.9818 17.4538 51 17.3966 51 17.3379C51 17.2792 50.9818 17.222 50.9481 17.1741C50.9143 17.1262 50.8665 17.0901 50.8114 17.0707L50.7974 17.067ZM41.6666 4.67969V7.02328C41.6666 7.14759 41.7158 7.26681 41.8033 7.35471C41.8908 7.44261 42.0095 7.49199 42.1333 7.49199C42.2571 7.49199 42.3758 7.44261 42.4633 7.35471C42.5508 7.26681 42.6 7.14759 42.6 7.02328V4.67969H43.5333V7.96259C43.5333 8.0869 43.5825 8.20612 43.67 8.29402C43.7575 8.38192 43.8762 8.4313 44 8.4313C44.1237 8.4313 44.2424 8.38192 44.3299 8.29402C44.4174 8.20612 44.4666 8.0869 44.4666 7.96259V4.67969H45.8666C45.9904 4.67969 46.1091 4.72907 46.1966 4.81697C46.2841 4.90487 46.3333 5.02409 46.3333 5.14841V8.52317C46.1672 8.45753 45.9897 8.42614 45.8114 8.43087C45.633 8.43561 45.4574 8.47637 45.295 8.55073C45.1327 8.62509 44.9869 8.73152 44.8664 8.86369C44.7459 8.99585 44.6531 9.15104 44.5935 9.31999L44.5898 9.33124L44.2622 10.3446C44.2086 10.5092 44.1178 10.6591 43.9971 10.7827C43.8763 10.9062 43.7288 11.0001 43.566 11.0571L42.9985 11.2417H37V5.14841C37 5.02409 37.0492 4.90487 37.1367 4.81697C37.2242 4.72907 37.3429 4.67969 37.4667 4.67969H41.6666ZM41.7506 12.1792H37V13.1204C37 13.6176 37.1967 14.0945 37.5467 14.4461C37.8968 14.7977 38.3716 14.9952 38.8667 14.9952H40.2666V18.2725C40.2666 18.6454 40.4141 19.0031 40.6767 19.2668C40.9392 19.5305 41.2953 19.6787 41.6666 19.6787C42.0379 19.6787 42.394 19.5305 42.6566 19.2668C42.9191 19.0031 43.0666 18.6454 43.0666 18.2725V14.9934H44.2958L44.2827 14.953V14.9512C44.219 14.7578 44.1042 14.5854 43.9505 14.4525C43.8396 14.3557 43.7108 14.2818 43.5716 14.235L42.5636 13.9069L42.5533 13.9022C42.3871 13.8432 42.2342 13.7516 42.1035 13.6327C41.9729 13.5138 41.8672 13.37 41.7925 13.2096C41.7177 13.0492 41.6756 12.8755 41.6684 12.6986C41.6612 12.5217 41.6892 12.3451 41.7506 12.1792Z" fill="url(#paint1_linear_4872_11908)"/>
<path d="M70 12.1797L56 12.1797" stroke="url(#paint2_linear_4872_11908)" stroke-linecap="round"/>
<path fill-rule="evenodd" clip-rule="evenodd" d="M81 19.1797C77.1339 19.1797 74 16.0458 74 12.1797C74 8.31359 77.1339 5.17969 81 5.17969C84.8661 5.17969 88 8.31359 88 12.1797C88 16.0458 84.8661 19.1797 81 19.1797ZM80.1761 13.6777L78.2406 11.7408L77.5 12.4814L79.6833 14.6661C79.8146 14.7973 79.9926 14.871 80.1782 14.871C80.3638 14.871 80.5418 14.7973 80.6731 14.6661L84.8395 10.5011L84.0961 9.75769L80.1761 13.6777Z" fill="#C4C4C4"/>
<defs>
<linearGradient id="paint0_linear_4872_11908" x1="18" y1="12.6797" x2="32" y2="12.6797" gradientUnits="userSpaceOnUse">
<stop stop-color="white"/>
<stop offset="1" stop-color="#0079FF"/>
</linearGradient>
<linearGradient id="paint1_linear_4872_11908" x1="44" y1="4.67969" x2="44" y2="19.6797" gradientUnits="userSpaceOnUse">
<stop stop-color="#C4C4C4"/>
<stop offset="1" stop-color="#0079FF"/>
</linearGradient>
<linearGradient id="paint2_linear_4872_11908" x1="70" y1="11.6797" x2="56" y2="11.6797" gradientUnits="userSpaceOnUse">
<stop stop-color="white"/>
<stop offset="1" stop-color="#0079FF"/>
</linearGradient>
</defs>
</svg>
