<svg xmlns="http://www.w3.org/2000/svg" width="16" height="16" viewBox="0 0 16 16" fill="none">
  <path d="M13.1562 5.15625C13.1562 2.30856 10.8477 0 8 0C5.15231 0 2.84375 2.30856 2.84375 5.15625C2.84375 7.68334 4.66306 9.78184 7.0625 10.2233V11.75H4.71875V13.625H7.0625V16H8H8.9375V13.625H11.2812V11.75H8.9375V10.2233C11.3369 9.78184 13.1562 7.68334 13.1562 5.15625ZM8 8.4375C6.19091 8.4375 4.71875 6.96534 4.71875 5.15625C4.71875 3.34716 6.19091 1.875 8 1.875C9.80909 1.875 11.2812 3.34716 11.2812 5.15625C11.2812 6.96534 9.80909 8.4375 8 8.4375Z" fill="currentColor">
  </path>
</svg>