<svg xmlns="http://www.w3.org/2000/svg" width="29" height="29" viewBox="0 0 29 29" fill="none">
  <path d="M26.1005 11.9786H25.1475V11.9295H14.4998V16.6618H21.186C20.2105 19.4167 17.5894 21.3942 14.4998 21.3942C10.5796 21.3942 7.40128 18.2158 7.40128 14.2957C7.40128 10.3755 10.5796 7.19718 14.4998 7.19718C16.3093 7.19718 17.9556 7.87982 19.209 8.99487L22.5554 5.64852C20.4424 3.67928 17.616 2.46484 14.4998 2.46484C7.9662 2.46484 2.66895 7.7621 2.66895 14.2957C2.66895 20.8293 7.9662 26.1265 14.4998 26.1265C21.0334 26.1265 26.3306 20.8293 26.3306 14.2957C26.3306 13.5024 26.249 12.7281 26.1005 11.9786Z" fill="#FFC107"/>
  <path d="M4.0332 8.78901L7.92022 11.6397C8.97198 9.03569 11.5192 7.19718 14.4999 7.19718C16.3095 7.19718 17.9557 7.87982 19.2092 8.99487L22.5556 5.64852C20.4426 3.67928 17.6162 2.46484 14.4999 2.46484C9.95572 2.46484 6.01487 5.03036 4.0332 8.78901Z" fill="#FF3D00"/>
  <path d="M14.4997 26.1261C17.5556 26.1261 20.3323 24.9566 22.4317 23.0548L18.77 19.9563C17.5423 20.89 16.0421 21.395 14.4997 21.3937C11.4225 21.3937 8.80964 19.4316 7.82532 16.6934L3.96729 19.6659C5.92529 23.4973 9.90163 26.1261 14.4997 26.1261Z" fill="#4CAF50"/>
  <path d="M26.1002 11.9788H25.1473V11.9297H14.4995V16.662H21.1857C20.7191 17.9731 19.8786 19.1188 18.7681 19.9575L18.7699 19.9563L22.4315 23.0548C22.1724 23.2902 26.3303 20.2113 26.3303 14.2959C26.3303 13.5026 26.2487 12.7283 26.1002 11.9788Z" fill="#1976D2"/>
</svg>