<svg xmlns="http://www.w3.org/2000/svg" width="18" height="18" viewBox="0 0 18 18" fill="none">
<path fill-rule="evenodd" clip-rule="evenodd" d="M13.8705 2.85078C15.4417 3.76653 16.5472 5.62578 16.4985 7.79478C16.4377 10.5023 14.331 12.8903 10.7392 15.0233C10.2067 15.3398 9.64574 15.75 8.99999 15.75C8.36624 15.75 7.78124 15.3323 7.25999 15.0225C3.66974 12.8903 1.56224 10.5015 1.50149 7.79478C1.45274 5.62578 2.55824 3.76728 4.12949 2.85078C5.59949 1.99503 7.44599 1.98978 8.99999 3.25353C10.554 1.98978 12.4005 1.99428 13.8705 2.85078ZM13.1152 4.14753C12.0697 3.53853 10.7632 3.56028 9.63224 4.70478C9.54932 4.788 9.45079 4.85403 9.34229 4.89909C9.23379 4.94415 9.11747 4.96734 8.99999 4.96734C8.88251 4.96734 8.76618 4.94415 8.65769 4.89909C8.54919 4.85403 8.45066 4.788 8.36774 4.70478C7.23674 3.56028 5.93024 3.53853 4.88474 4.14753C3.80174 4.77903 2.96474 6.11853 3.00149 7.76253C3.04349 9.64578 4.53149 11.658 8.02649 13.734C8.33249 13.9163 8.65199 14.1495 8.99999 14.2463C9.34799 14.1495 9.66749 13.9163 9.97349 13.734C13.4685 11.658 14.9565 9.64653 14.9985 7.76178C15.036 6.11928 14.1982 4.77903 13.1152 4.14753Z" fill="#F5542C"/>
</svg>