<svg xmlns="http://www.w3.org/2000/svg" width="24" height="24" viewBox="0 0 24 24" fill="none">
<path d="M0.75 12C0.75 9.1506 0.751592 7.08865 0.962947 5.51617C1.17141 3.96521 1.57148 3.00328 2.28738 2.28738C3.00332 1.57145 3.96496 1.1714 5.51571 0.962946C7.08802 0.751592 9.14996 0.75 12 0.75C14.8494 0.75 16.9113 0.751592 18.4838 0.962947C20.0348 1.17141 20.9967 1.57148 21.7126 2.28738C22.4285 3.00332 22.8286 3.96496 23.0371 5.51571C23.2484 7.08802 23.25 9.14996 23.25 12C23.25 14.8494 23.2484 16.9113 23.0371 18.4838C22.8286 20.0348 22.4285 20.9967 21.7126 21.7126C20.9967 22.4285 20.035 22.8286 18.4843 23.0371C16.912 23.2484 14.85 23.25 12 23.25C9.1506 23.25 7.08865 23.2484 5.51617 23.0371C3.96521 22.8286 3.00328 22.4285 2.28738 21.7126C1.57145 20.9967 1.1714 20.035 0.962946 18.4843C0.751592 16.912 0.75 14.85 0.75 12Z" stroke="white" stroke-width="1.5" stroke-linecap="round" stroke-linejoin="round"/>
<path d="M18.3158 8.95555C16.9415 3.84355 12.2173 4.16313 12.2173 4.16313C12.2173 4.16313 5.6842 3.7286 5.6842 11.9998C5.6842 20.2709 12.2173 19.8364 12.2173 19.8364C12.2173 19.8364 16.1015 20.0941 17.88 16.4233C18.461 14.8052 18.3158 11.5678 12.653 11.5678C12.653 11.5678 10.0396 11.5678 10.0396 13.7467C10.0396 14.5968 10.9112 15.4886 12.2173 15.4886C12.9535 15.4867 13.6649 15.2224 14.2237 14.7432C14.7826 14.2639 15.1523 13.6012 15.2665 12.8739C16.1381 7.64818 11.3469 7.21239 10.0396 9.39007" stroke="white" stroke-linecap="round" stroke-linejoin="round"/>
</svg>