<svg xmlns="http://www.w3.org/2000/svg" width="12" height="13" viewBox="0 0 12 13" fill="none">
  <path d="M2 3.5V9.5H10V3.5H2ZM2 2.5H10C10.2652 2.5 10.5196 2.60536 10.7071 2.79289C10.8946 2.98043 11 3.23478 11 3.5V9.5C11 9.76522 10.8946 10.0196 10.7071 10.2071C10.5196 10.3946 10.2652 10.5 10 10.5H2C1.73478 10.5 1.48043 10.3946 1.29289 10.2071C1.10536 10.0196 1 9.76522 1 9.5V3.5C1 3.23478 1.10536 2.98043 1.29289 2.79289C1.48043 2.60536 1.73478 2.5 2 2.5ZM3.75 6C3.94891 6 4.13968 5.92098 4.28033 5.78033C4.42098 5.63968 4.5 5.44891 4.5 5.25C4.5 5.05109 4.42098 4.86032 4.28033 4.71967C4.13968 4.57902 3.94891 4.5 3.75 4.5C3.55109 4.5 3.36032 4.57902 3.21967 4.71967C3.07902 4.86032 3 5.05109 3 5.25C3 5.44891 3.07902 5.63968 3.21967 5.78033C3.36032 5.92098 3.55109 6 3.75 6ZM3.5 7.5L4.5 6.5L5.5 7.5L7.5 5.5L9 7V8.5H3.5V7.5Z" fill="white"/>
</svg>