<svg xmlns="http://www.w3.org/2000/svg" width="23" height="23" viewBox="0 0 23 23" fill="none">
<path d="M14.9375 2.19336C13.9713 2.19314 13.0185 2.41925 12.1554 2.85357C11.2923 3.2879 10.5429 3.91835 9.96733 4.69443C9.39176 5.4705 9.00598 6.37061 8.84091 7.32262C8.67583 8.27462 8.73606 9.25207 9.01675 10.1766L1.875 17.3184V21.4434H6L13.1418 14.3016C13.9928 14.5599 14.8896 14.6318 15.7709 14.5122C16.6522 14.3926 17.4974 14.0844 18.2488 13.6086C19.0003 13.1329 19.6403 12.5007 20.1254 11.7552C20.6104 11.0097 20.929 10.1684 21.0595 9.28859C21.19 8.40881 21.1292 7.51124 20.8815 6.65705C20.6337 5.80286 20.2047 5.01213 19.6236 4.33874C19.0426 3.66536 18.3233 3.12514 17.5146 2.75492C16.7059 2.38469 15.8269 2.19315 14.9375 2.19336ZM14.9375 13.1934C14.4642 13.1932 13.9934 13.1233 13.5405 12.9857L12.7519 12.7465L12.1696 13.3288L9.98269 15.5157L9.03462 14.5684L8.0625 15.5405L9.01056 16.4885L7.92019 17.5789L6.97212 16.6309L6 17.603L6.94806 18.551L5.43075 20.0684H3.25V17.8876L9.98888 11.1487L10.5719 10.5664L10.3326 9.77786C10.0388 8.80917 10.0579 7.77248 10.3872 6.81526C10.7165 5.85804 11.3393 5.02904 12.1669 4.44618C12.9945 3.86331 13.9849 3.55627 14.9971 3.56872C16.0093 3.58118 16.9918 3.91249 17.8049 4.51554C18.6179 5.11859 19.2201 5.96266 19.5258 6.92769C19.8314 7.89272 19.825 8.92956 19.5074 9.89074C19.1898 10.8519 18.5772 11.6885 17.7568 12.2814C16.9363 12.8743 15.9498 13.1934 14.9375 13.1934Z" fill="currentColor"/>
<path d="M15.625 9.06836C16.3844 9.06836 17 8.45275 17 7.69336C17 6.93397 16.3844 6.31836 15.625 6.31836C14.8656 6.31836 14.25 6.93397 14.25 7.69336C14.25 8.45275 14.8656 9.06836 15.625 9.06836Z" fill="currentColor"/>
</svg>