<svg xmlns="http://www.w3.org/2000/svg" width="22" height="22" viewBox="0 0 22 22" fill="none">
  <path d="M13.75 10.0846C14.7625 10.0846 15.5834 9.26382 15.5834 8.2513C15.5834 7.23878 14.7625 6.41797 13.75 6.41797C12.7375 6.41797 11.9167 7.23878 11.9167 8.2513C11.9167 9.26382 12.7375 10.0846 13.75 10.0846Z" stroke="currentColor"/>
  <path d="M18.3334 16.1331L16.2956 14.2998C15.8329 13.8833 15.2426 13.6361 14.6212 13.5986C13.9997 13.5611 13.384 13.7356 12.8746 14.0935L12.6005 14.286C12.2475 14.5342 11.8182 14.6498 11.3883 14.6126C10.9584 14.5753 10.5554 14.3877 10.2502 14.0825L6.31769 10.15C5.93944 9.77214 5.43173 9.55206 4.89734 9.53436C4.36294 9.51666 3.84179 9.70266 3.43936 10.0547L2.09186 11.2335" stroke="currentColor" stroke-linecap="round"/>
  <path d="M11 20.1673C16.0626 20.1673 20.1667 16.0633 20.1667 11.0007C20.1667 5.93804 16.0626 1.83398 11 1.83398C5.9374 1.83398 1.83334 5.93804 1.83334 11.0007C1.83334 16.0633 5.9374 20.1673 11 20.1673Z" stroke="currentColor"/>
</svg>