<svg xmlns:dc="http://purl.org/dc/elements/1.1/" xmlns:cc="http://creativecommons.org/ns#" xmlns:rdf="http://www.w3.org/1999/02/22-rdf-syntax-ns#" xmlns:svg="http://www.w3.org/2000/svg" xmlns="http://www.w3.org/2000/svg" xmlns:sodipodi="http://sodipodi.sourceforge.net/DTD/sodipodi-0.dtd" xmlns:inkscape="http://www.inkscape.org/namespaces/inkscape" viewBox="0 0 12.7 15.875" version="1.1" x="0px" y="0px"><g transform="translate(0,-284.29998)"><path style="" d="m 7.9623136,287.44535 a 2.3072828,2.3072828 0 0 0 -1.6107569,0.65629 2.3072828,2.3072828 0 0 0 -3.2659637,0.0434 8.7882909,8.7882909 0 0 1 -2.42567349,2.13527 0.26414514,0.26414514 0 0 0 -0.00979,0.44907 13.325905,13.325905 0 0 1 2.06290329,1.6459 5.210489,5.210489 0 0 0 7.2739779,0 13.325905,13.325905 0 0 1 2.0629303,-1.6459 0.26414514,0.26414514 0 0 0 -0.0098,-0.44907 8.7882909,8.7882909 0 0 1 -2.4257001,-2.13527 h 0.00317 a 2.3072828,2.3072828 0 0 0 -1.6551804,-0.69969 z m -3.2080729,0.26406 a 2.0431377,2.0431377 0 0 1 1.4464242,0.61444 0.21131608,0.21131608 0 0 0 0.3017837,0 2.0431377,2.0431377 0 0 1 2.9166079,-0.005 9.0524361,9.0524361 0 0 0 2.0980665,1.94148 9.653952,9.653952 0 0 0 -3.5010725,0.185 7.1391118,7.1391118 0 0 1 -3.3295167,0 9.653952,9.653952 0 0 0 -3.5000405,-0.185 9.0524361,9.0524361 0 0 0 2.0980664,-1.94148 2.0431377,2.0431377 0 0 1 1.469681,-0.60978 z m 5.1851983,2.73989 a 9.3898065,9.3898065 0 0 1 1.870683,0.12195 13.59005,13.59005 0 0 0 -2.0060703,1.61489 4.9463438,4.9463438 0 0 1 -6.9055191,0 13.59005,13.59005 0 0 0 -2.0060708,-1.61489 9.3898065,9.3898065 0 0 1 3.7325829,0.13126 7.4032572,7.4032572 0 0 0 3.4524949,0 9.3898065,9.3898065 0 0 1 1.8618994,-0.25321 z" fill="#000000" stroke="none"/></g><text x="0" y="27.7" fill="#000000" font-size="5px" font-weight="bold" font-family="'Helvetica Neue', Helvetica, Arial-Unicode, Arial, Sans-serif">Created by Phạm Thanh Lộc</text><text x="0" y="32.7" fill="#000000" font-size="5px" font-weight="bold" font-family="'Helvetica Neue', Helvetica, Arial-Unicode, Arial, Sans-serif">from the Noun Project</text></svg>