<svg width="46" height="32" viewBox="0 0 46 32" fill="none" xmlns="http://www.w3.org/2000/svg">
<g clip-path="url(#clip0_4829_9469)">
<path d="M42.0572 0.333984H3.94287C1.94675 0.333984 0.328583 1.97561 0.328583 4.00065V28.0007C0.328583 30.0257 1.94675 31.6673 3.94287 31.6673H42.0572C44.0533 31.6673 45.6714 30.0257 45.6714 28.0007V4.00065C45.6714 1.97561 44.0533 0.333984 42.0572 0.333984Z" fill="white" stroke="#D9D9D9"/>
<path fill-rule="evenodd" clip-rule="evenodd" d="M23.2593 23.1741C21.6932 24.5451 19.6617 25.3728 17.442 25.3728C12.4888 25.3728 8.47354 21.252 8.47354 16.1688C8.47354 11.0856 12.4888 6.96484 17.442 6.96484C19.6617 6.96484 21.6932 7.79251 23.2593 9.16358C24.8254 7.79251 26.8568 6.96484 29.0766 6.96484C34.0297 6.96484 38.045 11.0856 38.045 16.1688C38.045 21.252 34.0297 25.3728 29.0766 25.3728C26.8568 25.3728 24.8254 24.5451 23.2593 23.1741Z" fill="#ED0006"/>
<path fill-rule="evenodd" clip-rule="evenodd" d="M23.2592 23.1741C25.1876 21.4859 26.4103 18.9739 26.4103 16.1688C26.4103 13.3637 25.1876 10.8517 23.2592 9.16358C24.8253 7.79251 26.8568 6.96484 29.0766 6.96484C34.0297 6.96484 38.045 11.0856 38.045 16.1688C38.045 21.252 34.0297 25.3728 29.0766 25.3728C26.8568 25.3728 24.8253 24.5451 23.2592 23.1741Z" fill="#F9A000"/>
<path fill-rule="evenodd" clip-rule="evenodd" d="M23.2593 9.16406C25.1876 10.8523 26.4104 13.3642 26.4104 16.1693C26.4104 18.9744 25.1876 21.4863 23.2593 23.1745C21.3311 21.4863 20.1083 18.9744 20.1083 16.1693C20.1083 13.3642 21.3311 10.8523 23.2593 9.16406Z" fill="#FF5E00"/>
</g>
<defs>
<clipPath id="clip0_4829_9469">
<rect width="46" height="32" fill="white"/>
</clipPath>
</defs>
</svg>
