<svg xmlns="http://www.w3.org/2000/svg" width="19" height="18" viewBox="0 0 19 18" fill="none">
<path d="M9.6687 0.817109C11.3904 0.257248 13.1106 0.574953 14.4028 1.16791C15.6606 1.74479 16.6225 2.70388 17.2608 3.88444C17.8923 5.05249 18.2038 6.43486 18.1659 7.86725C18.1126 9.79435 17.426 11.8161 16.0271 13.5271C15.2872 14.4344 14.3753 15.2113 13.305 15.8704C12.2433 16.5223 11.0251 17.0581 9.66233 17.4831C9.59866 17.5028 9.53328 17.5046 9.47305 17.4921C7.97607 17.1849 6.65459 16.7384 5.51206 16.1508C4.35748 15.556 3.38702 14.8184 2.60412 13.9343C1.03486 12.1644 0.32078 9.97474 0.331104 7.88511C0.337987 6.45808 0.683842 5.07571 1.32393 3.9023C1.97263 2.71638 2.92072 1.74301 4.13036 1.14469C4.38674 1.01788 4.65344 0.908937 4.93219 0.817851L6.07128 0.553521L6.04891 0.560665C6.70793 0.471364 7.4134 0.478508 8.16534 0.596385C8.19975 0.596385 8.23367 0.608887 8.2703 0.608887L8.32192 0.623175C8.49055 0.653537 8.70028 0.705136 8.91548 0.817109L9.34589 1.04105L9.6687 0.817109ZM10.1166 1.54833C10.7825 2.08235 11.3734 2.77877 11.8208 3.61641C12.6278 5.12916 13.0228 7.07961 12.9144 9.16389C12.9041 9.39071 12.7165 9.56574 12.498 9.55324C12.2795 9.54253 12.1108 9.34785 12.1229 9.12103C12.2244 7.19035 11.8424 5.40791 11.106 4.02732C10.4057 2.71638 9.3853 1.77337 8.15674 1.42688C6.73202 1.18398 5.49485 1.38045 4.47277 1.88589C3.41628 2.40919 2.58347 3.2629 2.01565 4.30415C1.4375 5.35968 1.12778 6.60275 1.12261 7.88689C1.11401 9.78185 1.76271 11.7679 3.18743 13.3771C3.90495 14.1862 4.79626 14.8648 5.86308 15.4132C6.91613 15.9561 8.13953 16.3722 9.52984 16.6651C10.7928 16.2633 11.9199 15.765 12.9006 15.1613C13.8952 14.5487 14.74 13.8307 15.4214 12.9949C16.6982 11.4321 17.3262 9.59432 17.3727 7.84403C17.4071 6.55988 17.1301 5.32575 16.5674 4.28629C16.0116 3.25754 15.1737 2.42169 14.081 1.92161C13.0056 1.42867 11.6772 1.259 10.1166 1.54833Z" fill="currentColor"/>
</svg>