<svg xmlns="http://www.w3.org/2000/svg" width="34" height="34" viewBox="0 0 34 34" fill="none">
  <path d="M14.354 6.35832C14.354 7.78386 13.7877 9.15101 12.7797 10.159C11.7717 11.167 10.4045 11.7333 8.979 11.7333C7.55346 11.7333 6.18631 11.167 5.17831 10.159C4.1703 9.15101 3.604 7.78386 3.604 6.35832C3.604 4.93278 4.1703 3.56563 5.17831 2.55762C6.18631 1.54961 7.55346 0.983318 8.979 0.983318C10.4045 0.983318 11.7717 1.54961 12.7797 2.55762C13.7877 3.56563 14.354 4.93278 14.354 6.35832ZM4.05192 13.525C3.22036 13.525 2.42285 13.8553 1.83485 14.4433C1.24684 15.0313 0.916504 15.8288 0.916504 16.6604V25.1708C0.916504 27.3091 1.76594 29.3599 3.27796 30.8719C4.78997 32.3839 6.8407 33.2333 8.979 33.2333C11.1173 33.2333 13.168 32.3839 14.6801 30.8719C16.1921 29.3599 17.0415 27.3091 17.0415 25.1708V16.6604C17.0415 15.8288 16.7112 15.0313 16.1232 14.4433C15.5352 13.8553 14.7377 13.525 13.9061 13.525H4.05192ZM14.999 32.9717C16.193 32.0521 17.1597 30.8704 17.8245 29.5178C18.4893 28.1652 18.8344 26.6779 18.8332 25.1708V16.6604C18.8332 15.4689 18.4103 14.3778 17.7062 13.525H21.9686C23.6993 13.525 25.104 14.9297 25.104 16.6604V25.1708C25.1042 26.4038 24.8217 27.6203 24.2781 28.727C23.7345 29.8336 22.9443 30.8008 21.9683 31.5543C20.9924 32.3077 19.8566 32.8273 18.6484 33.073C17.4402 33.3187 16.1917 33.2841 14.999 32.9717ZM16.1457 6.35832C16.1457 8.14999 15.4881 9.78578 14.4024 11.0417C15.2203 11.502 16.1444 11.74 17.0828 11.7322C18.0213 11.7245 18.9413 11.4711 19.7514 10.9974C20.5616 10.5237 21.2336 9.84608 21.7006 9.03205C22.1675 8.21801 22.4133 7.2959 22.4133 6.35742C22.4133 5.41895 22.1675 4.49683 21.7006 3.6828C21.2336 2.86876 20.5616 2.19118 19.7514 1.71746C18.9413 1.24374 18.0213 0.990388 17.0828 0.982607C16.1444 0.974825 15.2203 1.21289 14.4024 1.67311C15.4881 2.93086 16.1457 4.56844 16.1457 6.35832ZM23.0615 32.9717C24.2555 32.0521 25.2222 30.8704 25.887 29.5178C26.5518 28.1652 26.8969 26.6779 26.8957 25.1708V16.6604C26.8957 15.4689 26.4728 14.3778 25.7687 13.525H30.0311C31.7618 13.525 33.1665 14.9297 33.1665 16.6604V25.1708C33.1667 26.4038 32.8842 27.6203 32.3406 28.727C31.797 29.8336 31.0068 30.8008 30.0308 31.5543C29.0549 32.3077 27.9191 32.8273 26.7109 33.073C25.5027 33.3187 24.2542 33.2841 23.0615 32.9717ZM24.2082 6.35832C24.2082 8.14999 23.5506 9.78578 22.4649 11.0417C23.2828 11.502 24.2069 11.74 25.1453 11.7322C26.0838 11.7245 27.0038 11.4711 27.8139 10.9974C28.6241 10.5237 29.2961 9.84608 29.7631 9.03205C30.23 8.21801 30.4758 7.2959 30.4758 6.35742C30.4758 5.41895 30.23 4.49683 29.7631 3.6828C29.2961 2.86876 28.6241 2.19118 27.8139 1.71746C27.0038 1.24374 26.0838 0.990388 25.1453 0.982607C24.2069 0.974825 23.2828 1.21289 22.4649 1.67311C23.5506 2.93265 24.2082 4.57024 24.2082 6.35832Z" fill="currentColor"/>
</svg>