<svg width="23" height="23" viewBox="0 0 23 23" fill="none" xmlns="http://www.w3.org/2000/svg">
<path d="M3.24984 4.15527C2.2415 4.15527 1.4165 4.98027 1.4165 5.98861V16.9886C1.4165 17.9969 2.2415 18.8219 3.24984 18.8219H12.8748C12.6255 18.2391 12.4708 17.6202 12.4165 16.9886H3.24984V7.82194L10.5832 12.4053L17.9165 7.82194V10.5719C18.0692 10.5665 18.2221 10.5665 18.3748 10.5719C18.838 10.5733 19.2995 10.6287 19.7498 10.7369V5.98861C19.7498 4.98027 18.9248 4.15527 17.9165 4.15527H3.24984ZM3.24984 5.98861H17.9165L10.5832 10.5719L3.24984 5.98861ZM17.9165 11.4886L15.854 13.5511L17.9165 15.6136V14.2386C18.5243 14.2386 19.1072 14.4801 19.537 14.9098C19.9667 15.3396 20.2082 15.9225 20.2082 16.5303C20.2082 16.8969 20.1257 17.2453 19.9698 17.5569L20.969 18.5561C21.354 17.9786 21.5832 17.2819 21.5832 16.5303C21.5832 14.5044 19.9423 12.8636 17.9165 12.8636V11.4886ZM14.864 14.5044C14.479 15.0819 14.2498 15.7786 14.2498 16.5303C14.2498 18.5561 15.8907 20.1969 17.9165 20.1969V21.5719L19.979 19.5094L17.9165 17.4469V18.8219C17.3087 18.8219 16.7258 18.5805 16.2961 18.1507C15.8663 17.721 15.6248 17.1381 15.6248 16.5303C15.6248 16.1636 15.7073 15.8153 15.8632 15.5036L14.864 14.5044Z" fill="white"/>
</svg>
