<svg xmlns="http://www.w3.org/2000/svg" width="22" height="22" viewBox="0 0 22 22" fill="none">
<path d="M17.875 6.875C17.875 6.875 19.25 8.25 19.25 10.5417C19.25 12.8333 17.875 14.2083 17.875 14.2083" stroke="currentColor" stroke-width="1.375" stroke-linecap="round" stroke-linejoin="round"/>
<path d="M1.83334 12.7017V9.29717C1.83334 8.81094 2.0265 8.34463 2.37031 8.00081C2.71413 7.65699 3.18045 7.46384 3.66668 7.46384H6.32501C6.50424 7.46379 6.67952 7.41121 6.82918 7.31259L12.3292 3.68626C12.4674 3.59525 12.6276 3.54335 12.7929 3.53605C12.9582 3.52875 13.1224 3.56633 13.2681 3.64481C13.4138 3.72328 13.5355 3.83972 13.6203 3.98178C13.7052 4.12383 13.75 4.28621 13.75 4.45167V17.5472C13.75 17.7126 13.7052 17.875 13.6203 18.0171C13.5355 18.1591 13.4138 18.2756 13.2681 18.354C13.1224 18.4325 12.9582 18.4701 12.7929 18.4628C12.6276 18.4555 12.4674 18.4036 12.3292 18.3126L6.82918 14.6863C6.67952 14.5876 6.50424 14.5351 6.32501 14.535H3.66668C3.18045 14.535 2.71413 14.3419 2.37031 13.998C2.0265 13.6542 1.83334 13.1879 1.83334 12.7017Z" stroke="currentColor" stroke-width="1.375"/>
</svg>