<svg xmlns="http://www.w3.org/2000/svg" width="23" height="22" viewBox="0 0 23 22" fill="none">
  <path d="M11.7502 19.25C11.4904 19.25 11.2729 19.162 11.0975 18.986C10.9221 18.81 10.8341 18.5924 10.8335 18.3333C10.8329 18.0742 10.9209 17.8567 11.0975 17.6807C11.2741 17.5047 11.4917 17.4167 11.7502 17.4167H18.1668V10.9083C18.1668 9.12083 17.5444 7.60467 16.2996 6.35983C15.0547 5.115 13.5383 4.49228 11.7502 4.49167C9.96205 4.49106 8.44589 5.11378 7.20166 6.35983C5.95744 7.60589 5.33472 9.12206 5.3335 10.9083V15.5833C5.3335 15.8431 5.2455 16.0609 5.0695 16.2369C4.8935 16.4129 4.67594 16.5006 4.41683 16.5C3.91266 16.5 3.48122 16.3206 3.1225 15.9619C2.76377 15.6032 2.58411 15.1714 2.5835 14.6667V12.8333C2.5835 12.5125 2.66386 12.2109 2.82458 11.9286C2.9853 11.6462 3.2105 11.4207 3.50016 11.2521L3.56891 10.0375C3.69114 8.99861 3.99302 8.03611 4.47458 7.15C4.95614 6.26389 5.55961 5.49236 6.285 4.83542C7.01039 4.17847 7.84272 3.66667 8.782 3.3C9.72127 2.93333 10.7107 2.75 11.7502 2.75C12.7897 2.75 13.7751 2.93333 14.7064 3.3C15.6377 3.66667 16.4704 4.17481 17.2043 4.82442C17.9383 5.47403 18.5417 6.24158 19.0147 7.12708C19.4877 8.01258 19.7933 8.97508 19.9314 10.0146L20.0002 11.2063C20.2904 11.3438 20.5159 11.55 20.6767 11.825C20.8374 12.1 20.9174 12.3903 20.9168 12.6958V14.8042C20.9168 15.1097 20.8368 15.4 20.6767 15.675C20.5166 15.95 20.2911 16.1562 20.0002 16.2937V17.4167C20.0002 17.9208 19.8208 18.3526 19.4621 18.7119C19.1034 19.0713 18.6716 19.2506 18.1668 19.25H11.7502ZM9.00016 12.8333C8.74044 12.8333 8.52289 12.7453 8.3475 12.5693C8.17211 12.3933 8.08411 12.1758 8.0835 11.9167C8.08289 11.6576 8.17089 11.44 8.3475 11.264C8.52411 11.088 8.74166 11 9.00016 11C9.25866 11 9.47652 11.088 9.65375 11.264C9.83097 11.44 9.91866 11.6576 9.91683 11.9167C9.915 12.1758 9.827 12.3936 9.65283 12.5703C9.47866 12.7469 9.26111 12.8346 9.00016 12.8333ZM14.5002 12.8333C14.2404 12.8333 14.0229 12.7453 13.8475 12.5693C13.6721 12.3933 13.5841 12.1758 13.5835 11.9167C13.5829 11.6576 13.6709 11.44 13.8475 11.264C14.0241 11.088 14.2417 11 14.5002 11C14.7587 11 14.9765 11.088 15.1537 11.264C15.331 11.44 15.4187 11.6576 15.4168 11.9167C15.415 12.1758 15.327 12.3936 15.1528 12.5703C14.9787 12.7469 14.7611 12.8346 14.5002 12.8333ZM6.27308 11.4125C6.16614 9.79306 6.65502 8.40278 7.73975 7.24167C8.82447 6.08056 10.1766 5.5 11.796 5.5C13.1557 5.5 14.3514 5.93144 15.3829 6.79433C16.4145 7.65722 17.0369 8.7615 17.2502 10.1072C15.8599 10.0913 14.5805 9.71667 13.4121 8.98333C12.2436 8.25 11.3459 7.25694 10.7189 6.00417C10.4745 7.22639 9.959 8.31508 9.1725 9.27025C8.386 10.2254 7.41952 10.9395 6.27308 11.4125Z" fill="currentColor"/>
</svg>