<svg width="22" height="23" viewBox="0 0 22 23" fill="none" xmlns="http://www.w3.org/2000/svg">
<g clip-path="url(#clip0_5172_6576)">
<path d="M19.6289 6.61133H2.37112C2.06641 6.61133 1.77419 6.73237 1.55873 6.94783C1.34327 7.16329 1.22223 7.45551 1.22223 7.76022V18.9069C1.22223 19.2116 1.34327 19.5038 1.55873 19.7193C1.77419 19.9347 2.06641 20.0558 2.37112 20.0558H19.6289C19.9336 20.0558 20.2258 19.9347 20.4413 19.7193C20.6567 19.5038 20.7778 19.2116 20.7778 18.9069V7.76022C20.7778 7.45551 20.6567 7.16329 20.4413 6.94783C20.2258 6.73237 19.9336 6.61133 19.6289 6.61133ZM19.5556 18.8336H2.44445V7.83355H19.5556V18.8336Z" fill="white"/>
<path d="M18.4189 2.33377C18.4189 2.17169 18.3545 2.01625 18.2399 1.90165C18.1253 1.78704 17.9699 1.72266 17.8078 1.72266H4.36334C4.20126 1.72266 4.04582 1.78704 3.93122 1.90165C3.81661 2.01625 3.75223 2.17169 3.75223 2.33377V2.94488H18.4189V2.33377Z" fill="white"/>
<path d="M19.6289 4.77713C19.6289 4.61505 19.5645 4.45961 19.4499 4.34501C19.3353 4.2304 19.1799 4.16602 19.0178 4.16602H3.12889C2.96681 4.16602 2.81137 4.2304 2.69677 4.34501C2.58216 4.45961 2.51778 4.61505 2.51778 4.77713V5.38824H19.6289V4.77713Z" fill="white"/>
<path d="M7.83445 16.872C8.00381 16.9818 8.20093 17.0412 8.40278 17.0431C8.5482 17.0424 8.69186 17.0112 8.82445 16.9514L14.795 14.287C14.9796 14.2068 15.1367 14.0744 15.247 13.9061C15.3574 13.7379 15.4162 13.541 15.4162 13.3398C15.4162 13.1385 15.3574 12.9417 15.247 12.7734C15.1367 12.6051 14.9796 12.4727 14.795 12.3925L8.82445 9.7281C8.66645 9.65793 8.49344 9.6283 8.3211 9.64189C8.14876 9.65548 7.98254 9.71186 7.83749 9.80593C7.69245 9.89999 7.57317 10.0288 7.49047 10.1806C7.40777 10.3324 7.36426 10.5024 7.36389 10.6753V16.0042C7.3642 16.1765 7.40737 16.3461 7.48952 16.4976C7.57166 16.649 7.6902 16.7777 7.83445 16.872ZM8.21945 10.6753C8.21926 10.6446 8.22704 10.6144 8.24204 10.5876C8.25704 10.5608 8.27873 10.5384 8.305 10.5225C8.33699 10.5137 8.37079 10.5137 8.40278 10.5225C8.42698 10.5176 8.45192 10.5176 8.47611 10.5225L14.4467 13.1809C14.4804 13.1946 14.509 13.2185 14.5287 13.2491C14.5483 13.2797 14.5581 13.3156 14.5567 13.352C14.5577 13.3875 14.5477 13.4225 14.528 13.452C14.5083 13.4816 14.4799 13.5043 14.4467 13.517L8.47611 16.1814C8.4501 16.1964 8.42059 16.2044 8.39056 16.2044C8.36052 16.2044 8.33101 16.1964 8.305 16.1814C8.2795 16.1647 8.25841 16.1421 8.24351 16.1155C8.22862 16.0889 8.22036 16.0591 8.21945 16.0287V10.6753Z" fill="white"/>
</g>
<defs>
<clipPath id="clip0_5172_6576">
<rect width="22" height="22" fill="white" transform="translate(0 0.5)"/>
</clipPath>
</defs>
</svg>
