<svg width="46" height="32" viewBox="0 0 46 32" fill="none" xmlns="http://www.w3.org/2000/svg">
<g clip-path="url(#clip0_4829_9475)">
<path d="M42.0572 0.333984H3.94287C1.94675 0.333984 0.328583 1.97561 0.328583 4.00065V28.0007C0.328583 30.0257 1.94675 31.6673 3.94287 31.6673H42.0572C44.0533 31.6673 45.6714 30.0257 45.6714 28.0007V4.00065C45.6714 1.97561 44.0533 0.333984 42.0572 0.333984Z" fill="white" stroke="#D9D9D9"/>
<path fill-rule="evenodd" clip-rule="evenodd" d="M13.9646 21.6783H11.1779L9.08821 13.5905C8.98905 13.2185 8.77843 12.8895 8.46866 12.7345C7.69553 12.345 6.84361 12.0349 5.91428 11.8786V11.5672H10.4034C11.023 11.5672 11.4877 12.0349 11.5651 12.5782L12.6494 18.4122L15.4348 11.5672H18.144L13.9646 21.6783ZM19.6929 21.6783H17.0611L19.2283 11.5672H21.86L19.6929 21.6783ZM25.265 14.3683C25.3424 13.8237 25.8071 13.5123 26.3493 13.5123C27.2012 13.4341 28.1291 13.5905 28.9036 13.9787L29.3683 11.8017C28.5938 11.4903 27.7419 11.334 26.9688 11.334C24.4144 11.334 22.5557 12.7345 22.5557 14.6783C22.5557 16.1571 23.8723 16.9335 24.8017 17.4012C25.8071 17.8676 26.1944 18.179 26.1169 18.6454C26.1169 19.345 25.3424 19.6564 24.5693 19.6564C23.64 19.6564 22.7106 19.4232 21.86 19.0336L21.3954 21.2119C22.3247 21.6001 23.3302 21.7565 24.2595 21.7565C27.1237 21.8333 28.9036 20.4341 28.9036 18.334C28.9036 15.6893 25.265 15.5343 25.265 14.3683ZM38.1143 21.6783L36.0246 11.5672H33.78C33.3153 11.5672 32.8506 11.8786 32.6957 12.345L28.8262 21.6783H31.5354L32.0762 20.2009H35.405L35.7148 21.6783H38.1143ZM34.1672 14.2901L34.9403 18.1008H32.7732L34.1672 14.2901Z" fill="#172B85"/>
</g>
<defs>
<clipPath id="clip0_4829_9475">
<rect width="46" height="32" fill="white"/>
</clipPath>
</defs>
</svg>
