<svg xmlns="http://www.w3.org/2000/svg" width="22" height="22" viewBox="0 0 22 22" fill="none">
<path d="M19.1606 3.04081C19.2507 3.23606 19.4026 3.39006 19.6034 3.47738L20.4387 3.83969C20.4942 3.86396 20.5413 3.90388 20.5745 3.95455C20.6076 4.00522 20.6253 4.06445 20.6253 4.125C20.6253 4.18555 20.6076 4.24478 20.5745 4.29545C20.5413 4.34612 20.4942 4.38604 20.4387 4.41031L19.6102 4.77262C19.4124 4.85619 19.2542 5.01244 19.1682 5.20919L18.5123 6.699C18.3954 6.93344 18.0427 6.93344 17.9252 6.699L17.2693 5.20919C17.181 5.01401 17.0235 4.85848 16.8272 4.77262L15.9988 4.41031C15.9433 4.38604 15.8962 4.34612 15.863 4.29545C15.8299 4.24478 15.8122 4.18555 15.8122 4.125C15.8122 4.06445 15.8299 4.00522 15.863 3.95455C15.8962 3.90388 15.9433 3.86396 15.9988 3.83969L16.8272 3.47738C17.0251 3.39381 17.1833 3.23756 17.2693 3.04081L17.9252 1.551C18.0421 1.31656 18.3947 1.31656 18.5123 1.551L19.1606 3.04081ZM10.9883 3.55094C11.0533 3.68617 11.1652 3.79318 11.3032 3.85206L11.8972 4.09956C12.0759 4.18 12.0759 4.41375 11.8972 4.49419L11.3032 4.74169C11.1633 4.79772 11.0505 4.9056 10.9883 5.04281L10.5236 6.06719C10.4376 6.22738 10.1867 6.22738 10.1014 6.06719L9.63668 5.04281C9.5717 4.90758 9.4598 4.80057 9.32181 4.74169L8.72781 4.49419C8.68834 4.47844 8.65451 4.45122 8.63067 4.41605C8.60684 4.38088 8.5941 4.33936 8.5941 4.29688C8.5941 4.25439 8.60684 4.21287 8.63067 4.1777C8.65451 4.14253 8.68834 4.11531 8.72781 4.09956L9.32181 3.85206C9.46166 3.79603 9.57447 3.68815 9.63668 3.55094L10.1014 2.52656C10.1874 2.36637 10.4383 2.36637 10.5236 2.52656L10.9883 3.55094ZM2.75 17.875L1.60737 18.9936C1.53377 19.0668 1.47535 19.1538 1.4355 19.2497C1.39564 19.3455 1.37512 19.4483 1.37512 19.5522C1.37512 19.656 1.39564 19.7588 1.4355 19.8546C1.47535 19.9505 1.53377 20.0375 1.60737 20.1108L1.88925 20.3926C2.19175 20.7034 2.69362 20.7034 2.99612 20.3857L4.125 19.2548L4.12293 19.2528L13.75 9.625L14.9009 8.47894C15.1999 8.173 15.1999 7.62644 14.9009 7.32737L14.674 7.09981C14.3687 6.79938 13.75 6.875 13.4062 7.21875L2.75 17.875ZM17.8406 11.2049C17.6989 11.1366 17.5866 11.0194 17.5244 10.8749L17.0534 9.75975C16.9654 9.58031 16.7152 9.58031 16.6341 9.75975L16.1631 10.8756C16.1008 11.0198 15.9885 11.1367 15.8469 11.2049L15.2577 11.4744C15.081 11.5638 15.081 11.8181 15.2577 11.9006L15.8462 12.1701C15.9879 12.2384 16.1002 12.3556 16.1624 12.5001L16.6341 13.6153C16.7221 13.7947 16.9723 13.7947 17.0534 13.6153L17.5244 12.5001C17.5866 12.3556 17.6989 12.2384 17.8406 12.1701L18.4298 11.9006C18.6065 11.8112 18.6065 11.5569 18.4298 11.4744L17.8406 11.2049ZM8.25 9.625C8.43233 9.625 8.6072 9.55257 8.73613 9.42364C8.86506 9.2947 8.9375 9.11984 8.9375 8.9375C8.9375 8.75516 8.86506 8.5803 8.73613 8.45136C8.6072 8.32243 8.43233 8.25 8.25 8.25C8.06766 8.25 7.89279 8.32243 7.76386 8.45136C7.63493 8.5803 7.5625 8.75516 7.5625 8.9375C7.5625 9.11984 7.63493 9.2947 7.76386 9.42364C7.89279 9.55257 8.06766 9.625 8.25 9.625ZM20.625 8.9375C20.625 9.11984 20.5526 9.2947 20.4236 9.42364C20.2947 9.55257 20.1198 9.625 19.9375 9.625C19.7552 9.625 19.5803 9.55257 19.4514 9.42364C19.3224 9.2947 19.25 9.11984 19.25 8.9375C19.25 8.75516 19.3224 8.5803 19.4514 8.45136C19.5803 8.32243 19.7552 8.25 19.9375 8.25C20.1198 8.25 20.2947 8.32243 20.4236 8.45136C20.5526 8.5803 20.625 8.75516 20.625 8.9375ZM13.0625 2.75C13.2448 2.75 13.4197 2.67757 13.5486 2.54864C13.6776 2.4197 13.75 2.24484 13.75 2.0625C13.75 1.88016 13.6776 1.7053 13.5486 1.57636C13.4197 1.44743 13.2448 1.375 13.0625 1.375C12.8802 1.375 12.7053 1.44743 12.5764 1.57636C12.4474 1.7053 12.375 1.88016 12.375 2.0625C12.375 2.24484 12.4474 2.4197 12.5764 2.54864C12.7053 2.67757 12.8802 2.75 13.0625 2.75ZM13.75 14.4375C13.75 14.6198 13.6776 14.7947 13.5486 14.9236C13.4197 15.0526 13.2448 15.125 13.0625 15.125C12.8802 15.125 12.7053 15.0526 12.5764 14.9236C12.4474 14.7947 12.375 14.6198 12.375 14.4375C12.375 14.2552 12.4474 14.0803 12.5764 13.9514C12.7053 13.8224 12.8802 13.75 13.0625 13.75C13.2448 13.75 13.4197 13.8224 13.5486 13.9514C13.6776 14.0803 13.75 14.2552 13.75 14.4375Z" fill="currentColor"/>
</svg>