<svg width="272" height="58" viewBox="0 0 272 58" fill="none" xmlns="http://www.w3.org/2000/svg">
<path d="M0.61375 47C0.61375 41.5387 0.61375 36.0347 0.61375 30.488C0.61375 24.8987 0.61375 19.3733 0.61375 13.912C2.36308 13.912 4.13375 13.912 5.92575 13.912C7.71775 13.912 9.46708 13.912 11.1738 13.912C11.1738 14.2107 11.1738 14.488 11.1738 14.744C11.1738 15 11.1738 15.2773 11.1738 15.576C12.2831 14.7653 13.5204 14.1467 14.8858 13.72C16.2511 13.2507 17.6591 13.016 19.1098 13.016C20.6884 13.016 22.1391 13.2933 23.4618 13.848C24.7844 14.36 25.9151 15.128 26.8538 16.152C28.2191 15.1707 29.7551 14.4027 31.4618 13.848C33.2111 13.2933 35.0031 13.016 36.8378 13.016C39.4404 13.016 41.6804 13.5493 43.5578 14.616C45.4778 15.6827 46.9498 17.1973 47.9738 19.16C49.0404 21.1227 49.5738 23.4907 49.5738 26.264C49.5738 29.6773 49.5738 33.1333 49.5738 36.632C49.5738 40.1307 49.5738 43.5867 49.5738 47C47.8671 47 46.1178 47 44.3258 47C42.5338 47 40.7631 47 39.0138 47C39.0138 43.8 39.0138 40.5573 39.0138 37.272C39.0138 33.9867 39.0138 30.744 39.0138 27.544C39.0138 26.0933 38.6724 24.92 37.9898 24.024C37.3498 23.0853 36.3044 22.616 34.8538 22.616C33.4458 22.616 32.3364 23.064 31.5258 23.96C30.7578 24.8133 30.3738 26.008 30.3738 27.544C30.3738 30.744 30.3738 33.9867 30.3738 37.272C30.3738 40.5573 30.3738 43.8 30.3738 47C28.6671 47 26.9178 47 25.1258 47C23.3338 47 21.5631 47 19.8138 47C19.8138 43.8 19.8138 40.5573 19.8138 37.272C19.8138 33.9867 19.8138 30.744 19.8138 27.544C19.8138 26.0933 19.4724 24.92 18.7898 24.024C18.1498 23.0853 17.1044 22.616 15.6538 22.616C14.2458 22.616 13.1364 23.064 12.3258 23.96C11.5578 24.8133 11.1738 26.008 11.1738 27.544C11.1738 30.744 11.1738 33.9867 11.1738 37.272C11.1738 40.5573 11.1738 43.8 11.1738 47C9.46708 47 7.71775 47 5.92575 47C4.13375 47 2.36308 47 0.61375 47ZM58.5608 57.24C59.4141 54.9787 60.2888 52.696 61.1848 50.392C62.1234 48.1307 63.0194 45.8907 63.8728 43.672C61.8674 38.7653 59.8194 33.816 57.7288 28.824C55.6808 23.7893 53.6541 18.8187 51.6487 13.912C53.5261 13.912 55.4034 13.912 57.2808 13.912C59.1581 13.912 61.0141 13.912 62.8488 13.912C63.9581 16.6427 65.0674 19.416 66.1768 22.232C67.3288 25.048 68.4594 27.8427 69.5688 30.616C70.5928 27.8427 71.6381 25.048 72.7048 22.232C73.7714 19.416 74.8168 16.6427 75.8408 13.912C77.6754 13.912 79.5101 13.912 81.3448 13.912C83.1794 13.912 85.0141 13.912 86.8488 13.912C83.9901 21.0373 81.1101 28.2693 78.2088 35.608C75.3501 42.904 72.4914 50.1147 69.6328 57.24C67.7981 57.24 65.9421 57.24 64.0648 57.24C62.2301 57.24 60.3954 57.24 58.5608 57.24Z" fill="#F5542C"/>
<path d="M100.931 47C99.2246 47 97.4753 47 95.6833 47C93.8913 47 92.1206 47 90.3713 47C90.3713 39.2773 90.3713 31.4907 90.3713 23.64C90.3713 15.7893 90.3713 8.00267 90.3713 0.279999C92.1206 0.279999 93.8913 0.279999 95.6833 0.279999C97.4753 0.279999 99.2246 0.279999 100.931 0.279999C100.931 2.84 100.931 5.42133 100.931 8.024C100.931 10.6267 100.931 13.208 100.931 15.768C101.998 14.9147 103.214 14.2533 104.579 13.784C105.945 13.272 107.395 13.016 108.931 13.016C111.065 13.016 113.091 13.4427 115.011 14.296C116.931 15.1067 118.617 16.28 120.067 17.816C121.561 19.352 122.713 21.1867 123.523 23.32C124.377 25.4533 124.803 27.8213 124.803 30.424C124.803 32.984 124.377 35.3307 123.523 37.464C122.713 39.5973 121.561 41.4533 120.067 43.032C118.617 44.568 116.931 45.7627 115.011 46.616C113.091 47.4693 111.043 47.896 108.867 47.896C107.331 47.896 105.881 47.64 104.515 47.128C103.193 46.6587 101.998 45.976 100.931 45.08C100.931 45.3787 100.931 45.6987 100.931 46.04C100.931 46.3387 100.931 46.6587 100.931 47ZM107.459 38.552C109.55 38.552 111.193 37.8267 112.387 36.376C113.625 34.8827 114.243 32.8987 114.243 30.424C114.243 27.9493 113.625 25.9867 112.387 24.536C111.193 23.0853 109.55 22.36 107.459 22.36C105.411 22.36 103.769 23.1067 102.531 24.6C101.294 26.0507 100.675 27.992 100.675 30.424C100.675 32.856 101.294 34.8187 102.531 36.312C103.769 37.8053 105.411 38.552 107.459 38.552ZM152.131 47C152.131 46.6587 152.131 46.3387 152.131 46.04C152.131 45.6987 152.131 45.3787 152.131 45.08C151.065 45.976 149.849 46.6587 148.483 47.128C147.161 47.64 145.731 47.896 144.195 47.896C142.019 47.896 139.971 47.4907 138.051 46.68C136.131 45.8267 134.425 44.632 132.931 43.096C131.481 41.5173 130.329 39.6613 129.475 37.528C128.665 35.3947 128.259 33.0267 128.259 30.424C128.259 27.7787 128.665 25.3893 129.475 23.256C130.329 21.1227 131.481 19.3093 132.931 17.816C134.425 16.28 136.131 15.1067 138.051 14.296C139.971 13.4427 141.998 13.016 144.131 13.016C145.667 13.016 147.118 13.272 148.483 13.784C149.849 14.2533 151.065 14.9147 152.131 15.768C152.131 15.4267 152.131 15.1067 152.131 14.808C152.131 14.5093 152.131 14.2107 152.131 13.912C153.881 13.912 155.651 13.912 157.443 13.912C159.235 13.912 160.985 13.912 162.691 13.912C162.691 19.3733 162.691 24.8987 162.691 30.488C162.691 36.0347 162.691 41.5387 162.691 47C160.985 47 159.235 47 157.443 47C155.651 47 153.881 47 152.131 47ZM145.603 38.552C147.651 38.552 149.294 37.8053 150.531 36.312C151.769 34.8187 152.387 32.856 152.387 30.424C152.387 27.992 151.769 26.0507 150.531 24.6C149.294 23.1067 147.651 22.36 145.603 22.36C143.513 22.36 141.849 23.0853 140.611 24.536C139.417 25.9867 138.819 27.9493 138.819 30.424C138.819 32.8987 139.417 34.8827 140.611 36.376C141.849 37.8267 143.513 38.552 145.603 38.552ZM180.619 47C178.912 47 177.163 47 175.371 47C173.579 47 171.808 47 170.059 47C170.059 39.2773 170.059 31.4907 170.059 23.64C170.059 15.7893 170.059 8.00267 170.059 0.279999C171.808 0.279999 173.579 0.279999 175.371 0.279999C177.163 0.279999 178.912 0.279999 180.619 0.279999C180.619 2.84 180.619 5.42133 180.619 8.024C180.619 10.6267 180.619 13.208 180.619 15.768C181.685 14.9147 182.901 14.2533 184.267 13.784C185.632 13.272 187.083 13.016 188.619 13.016C190.752 13.016 192.779 13.4427 194.699 14.296C196.619 15.1067 198.304 16.28 199.755 17.816C201.248 19.352 202.4 21.1867 203.211 23.32C204.064 25.4533 204.491 27.8213 204.491 30.424C204.491 32.984 204.064 35.3307 203.211 37.464C202.4 39.5973 201.248 41.4533 199.755 43.032C198.304 44.568 196.619 45.7627 194.699 46.616C192.779 47.4693 190.731 47.896 188.555 47.896C187.019 47.896 185.568 47.64 184.203 47.128C182.88 46.6587 181.685 45.976 180.619 45.08C180.619 45.3787 180.619 45.6987 180.619 46.04C180.619 46.3387 180.619 46.6587 180.619 47ZM187.147 38.552C189.237 38.552 190.88 37.8267 192.075 36.376C193.312 34.8827 193.931 32.8987 193.931 30.424C193.931 27.9493 193.312 25.9867 192.075 24.536C190.88 23.0853 189.237 22.36 187.147 22.36C185.099 22.36 183.456 23.1067 182.219 24.6C180.981 26.0507 180.363 27.992 180.363 30.424C180.363 32.856 180.981 34.8187 182.219 36.312C183.456 37.8053 185.099 38.552 187.147 38.552ZM238.219 45.464C235.275 46.7013 232.352 47.4693 229.451 47.768C226.549 48.0667 223.797 47.896 221.195 47.256C218.635 46.6587 216.352 45.6133 214.347 44.12C212.341 42.6267 210.763 40.728 209.611 38.424C208.501 36.12 207.947 33.4533 207.947 30.424C207.947 27.9067 208.352 25.6027 209.163 23.512C210.016 21.3787 211.211 19.5227 212.747 17.944C214.283 16.3227 216.096 15.0853 218.187 14.232C220.277 13.336 222.56 12.888 225.035 12.888C227.253 12.888 229.259 13.2507 231.051 13.976C232.843 14.7013 234.4 15.7253 235.723 17.048C237.045 18.328 238.112 19.864 238.923 21.656C239.733 23.448 240.245 25.4107 240.459 27.544C240.672 29.6773 240.544 31.9387 240.075 34.328C236.576 34.328 233.056 34.328 229.515 34.328C225.973 34.328 222.453 34.328 218.955 34.328C219.765 35.9493 221.109 37.1013 222.987 37.784C224.907 38.4667 227.168 38.68 229.771 38.424C232.416 38.168 235.232 37.4853 238.219 36.376C238.219 37.8693 238.219 39.384 238.219 40.92C238.219 42.456 238.219 43.9707 238.219 45.464ZM224.779 22.36C223.541 22.36 222.389 22.7013 221.323 23.384C220.299 24.0667 219.509 25.112 218.955 26.52C220.875 26.52 222.795 26.52 224.715 26.52C226.677 26.52 228.619 26.52 230.539 26.52C230.027 25.0693 229.259 24.024 228.235 23.384C227.253 22.7013 226.101 22.36 224.779 22.36ZM271.331 36.76C271.331 39.4053 270.585 41.5813 269.091 43.288C267.641 44.952 265.678 46.168 263.203 46.936C260.729 47.704 257.955 48.024 254.883 47.896C251.854 47.8107 248.761 47.32 245.603 46.424C245.603 44.8027 245.603 43.1387 245.603 41.432C245.603 39.7253 245.603 38.0613 245.603 36.44C247.395 37.2507 249.187 37.8907 250.979 38.36C252.771 38.7867 254.393 39.0427 255.843 39.128C257.294 39.2133 258.467 39.1067 259.363 38.808C260.259 38.4667 260.707 37.912 260.707 37.144C260.707 36.5467 260.323 36.0773 259.555 35.736C258.83 35.3947 257.87 35.096 256.675 34.84C255.481 34.5413 254.201 34.2 252.835 33.816C251.513 33.3893 250.254 32.8133 249.059 32.088C247.865 31.32 246.883 30.3173 246.115 29.08C245.39 27.8 245.027 26.1573 245.027 24.152C245.027 21.7627 245.71 19.736 247.075 18.072C248.483 16.3653 250.361 15.0853 252.707 14.232C255.054 13.336 257.678 12.888 260.579 12.888C263.481 12.888 266.446 13.3787 269.475 14.36C269.475 15.9813 269.475 17.6453 269.475 19.352C269.475 21.0587 269.475 22.7227 269.475 24.344C267.086 23.192 264.846 22.424 262.755 22.04C260.665 21.656 258.979 21.6133 257.699 21.912C256.419 22.168 255.779 22.744 255.779 23.64C255.779 24.2373 256.142 24.7067 256.867 25.048C257.635 25.3467 258.595 25.624 259.747 25.88C260.942 26.136 262.201 26.4773 263.523 26.904C264.889 27.3307 266.147 27.928 267.299 28.696C268.494 29.4213 269.454 30.4453 270.179 31.768C270.947 33.048 271.331 34.712 271.331 36.76Z" fill="white"/>
</svg>
